<svg enable-background="new 0 0 269.1 218.7" viewBox="0 0 269.1 218.7" xmlns="http://www.w3.org/2000/svg" xmlns:xlink="http://www.w3.org/1999/xlink"><linearGradient id="a"><stop offset=".019802" stop-color="#f5e0a2"/><stop offset=".4951" stop-color="#fff"/><stop offset="1" stop-color="#f5e0a2"/></linearGradient><linearGradient id="b" gradientTransform="matrix(.8822 .3175 -.3484 .9681 55.8251 -45.5718)" gradientUnits="userSpaceOnUse" x1="100.5937" x2="162.5783" xlink:href="#a" y1="204.7228" y2="204.7228"/><linearGradient id="c" gradientTransform="matrix(.8822 .3175 -.3484 .9681 55.8251 -45.5718)" gradientUnits="userSpaceOnUse" x1="17.9817" x2="175.0213" xlink:href="#a" y1="176.0225" y2="176.0225"/><linearGradient id="d" gradientTransform="matrix(.8822 .3175 -.3484 .9681 55.8251 -45.5718)" gradientUnits="userSpaceOnUse" x1="17.9817" x2="253.9732" xlink:href="#a" y1="188.8776" y2="188.8776"/><linearGradient id="e" gradientTransform="matrix(.8822 .3175 -.3484 .9681 55.8251 -45.5718)" gradientUnits="userSpaceOnUse" x1="17.9817" x2="253.9732" xlink:href="#a" y1="205.6336" y2="205.6336"/><linearGradient id="f" gradientTransform="matrix(.8822 .3175 -.3484 .9681 55.8251 -45.5718)" gradientUnits="userSpaceOnUse" x1="17.9817" x2="253.9732" xlink:href="#a" y1="210.7318" y2="210.7318"/><linearGradient id="g" gradientTransform="matrix(.8822 .3175 -.3484 .9681 55.8251 -45.5718)" gradientUnits="userSpaceOnUse" x1="17.9817" x2="253.9732" xlink:href="#a" y1="213.5119" y2="213.5119"/><linearGradient id="h" gradientTransform="matrix(.8822 .3175 -.3484 .9681 55.8251 -45.5718)" gradientUnits="userSpaceOnUse" x1="17.9817" x2="253.9732" xlink:href="#a" y1="214.6319" y2="214.6319"/><linearGradient id="i" gradientTransform="matrix(.8822 .3175 -.3484 .9681 55.8251 -45.5718)" gradientUnits="userSpaceOnUse" x1="17.9817" x2="253.9732" xlink:href="#a" y1="214.9852" y2="214.9852"/><linearGradient id="j" gradientTransform="matrix(.8822 .3175 -.3484 .9681 55.8251 -45.5718)" gradientUnits="userSpaceOnUse" x1="17.9817" x2="253.9732" xlink:href="#a" y1="213.7712" y2="213.7712"/><linearGradient id="k" gradientTransform="matrix(.8822 .3175 -.3484 .9681 55.8251 -45.5718)" gradientUnits="userSpaceOnUse" x1="17.9817" x2="253.9732" xlink:href="#a" y1="210.0752" y2="210.0752"/><linearGradient id="l" gradientTransform="matrix(.8822 .3175 -.3484 .9681 55.8251 -45.5718)" gradientUnits="userSpaceOnUse" x1="17.9817" x2="253.9732" xlink:href="#a" y1="206.3162" y2="206.3162"/><linearGradient id="m" gradientTransform="matrix(.8822 .3175 -.3484 .9681 55.8251 -45.5718)" gradientUnits="userSpaceOnUse" x1="17.9817" x2="253.9732" xlink:href="#a" y1="201.7759" y2="201.7759"/><linearGradient id="n" gradientTransform="matrix(.8822 .3175 -.3484 .9681 55.8251 -45.5718)" gradientUnits="userSpaceOnUse" x1="17.9817" x2="253.9732" xlink:href="#a" y1="193.2132" y2="193.2132"/><linearGradient id="o" gradientTransform="matrix(.8822 .3175 -.3484 .9681 55.8251 -45.5718)" gradientUnits="userSpaceOnUse" x1="17.9817" x2="253.9732" xlink:href="#a" y1="183.3994" y2="183.3994"/><linearGradient id="p" gradientTransform="matrix(.8822 .3175 -.3484 .9681 55.8251 -45.5718)" gradientUnits="userSpaceOnUse" x1="17.9817" x2="253.9732" xlink:href="#a" y1="162.501" y2="162.501"/><linearGradient id="q" gradientTransform="matrix(.8822 .3175 -.3484 .9681 55.8251 -45.5718)" gradientUnits="userSpaceOnUse" x1="17.9817" x2="253.9732" xlink:href="#a" y1="127.393" y2="127.393"/><linearGradient id="r" gradientTransform="matrix(.8822 .3175 -.3484 .9681 55.8251 -45.5718)" gradientUnits="userSpaceOnUse" x1="17.9817" x2="253.9732" xlink:href="#a" y1="182.345" y2="182.345"/><linearGradient id="s" gradientTransform="matrix(.8822 .3175 -.3484 .9681 55.8251 -45.5718)" gradientUnits="userSpaceOnUse" x1="17.9817" x2="253.9732" xlink:href="#a" y1="131.1622" y2="131.1622"/><linearGradient id="t" gradientTransform="matrix(.8822 .3175 -.3484 .9681 55.8251 -45.5718)" gradientUnits="userSpaceOnUse" x1="17.9817" x2="253.9732" xlink:href="#a" y1="106.4723" y2="106.4723"/><linearGradient id="u" gradientTransform="matrix(.8822 .3175 -.3484 .9681 55.8251 -45.5718)" gradientUnits="userSpaceOnUse" x1="17.9817" x2="253.9732" xlink:href="#a" y1="115.7487" y2="115.7487"/><linearGradient id="v" gradientTransform="matrix(.8822 .3175 -.3484 .9681 55.8251 -45.5718)" gradientUnits="userSpaceOnUse" x1="17.9817" x2="253.9732" xlink:href="#a" y1="125.2862" y2="125.2862"/><linearGradient id="w" gradientTransform="matrix(.8822 .3175 -.3484 .9681 55.8251 -45.5718)" gradientUnits="userSpaceOnUse" x1="17.9817" x2="253.9732" xlink:href="#a" y1="45.3625" y2="45.3625"/><linearGradient id="x" gradientTransform="matrix(.8822 .3175 -.3484 .9681 55.8251 -45.5718)" gradientUnits="userSpaceOnUse" x1="17.9817" x2="253.9732" xlink:href="#a" y1="162.6552" y2="162.6552"/><linearGradient id="y" gradientTransform="matrix(.8822 .3175 -.3484 .9681 55.8251 -45.5718)" gradientUnits="userSpaceOnUse" x1="17.9817" x2="253.9732" xlink:href="#a" y1="191.8912" y2="191.8912"/><linearGradient id="z" gradientTransform="matrix(.8822 .3175 -.3484 .9681 55.8251 -45.5718)" gradientUnits="userSpaceOnUse" x1="17.9817" x2="253.9732" xlink:href="#a" y1="27.2945" y2="27.2945"/><linearGradient id="A" gradientTransform="matrix(.8822 .3175 -.3484 .9681 55.8251 -45.5718)" gradientUnits="userSpaceOnUse" x1="17.9817" x2="253.9732" xlink:href="#a" y1="26.877" y2="26.877"/><linearGradient id="B" gradientTransform="matrix(.8822 .3175 -.3484 .9681 55.8251 -45.5718)" gradientUnits="userSpaceOnUse" x1="17.9817" x2="253.9732" xlink:href="#a" y1="23.7655" y2="23.7655"/><linearGradient id="C" gradientTransform="matrix(.8822 .3175 -.3484 .9681 55.8251 -45.5718)" gradientUnits="userSpaceOnUse" x1="17.9817" x2="253.9732" xlink:href="#a" y1="33.3637" y2="33.3637"/><linearGradient id="D" gradientTransform="matrix(.8822 .3175 -.3484 .9681 55.8251 -45.5718)" gradientUnits="userSpaceOnUse" x1="17.9817" x2="253.9732" xlink:href="#a" y1="30.3245" y2="30.3245"/><linearGradient id="E" gradientTransform="matrix(.8822 .3175 -.3484 .9681 55.8251 -45.5718)" gradientUnits="userSpaceOnUse" x1="17.9817" x2="253.9732" xlink:href="#a" y1="12.7533" y2="12.7533"/><linearGradient id="F" gradientTransform="matrix(.8822 .3175 -.3484 .9681 55.8251 -45.5718)" gradientUnits="userSpaceOnUse" x1="17.9817" x2="253.9732" xlink:href="#a" y1="40.3128" y2="40.3128"/><linearGradient id="G" gradientTransform="matrix(.8822 .3175 -.3484 .9681 55.8251 -45.5718)" gradientUnits="userSpaceOnUse" x1="17.9817" x2="253.9732" xlink:href="#a" y1="35.8568" y2="35.8568"/><linearGradient id="H" gradientTransform="matrix(.8822 .3175 -.3484 .9681 55.8251 -45.5718)" gradientUnits="userSpaceOnUse" x1="17.9817" x2="253.9732" xlink:href="#a" y1="35.538" y2="35.538"/><linearGradient id="I" gradientTransform="matrix(.8822 .3175 -.3484 .9681 55.8251 -45.5718)" gradientUnits="userSpaceOnUse" x1="17.9817" x2="253.9732" xlink:href="#a" y1="29.1537" y2="29.1537"/><linearGradient id="J" gradientTransform="matrix(.8822 .3175 -.3484 .9681 55.8251 -45.5718)" gradientUnits="userSpaceOnUse" x1="17.9817" x2="253.9732" xlink:href="#a" y1="30.8044" y2="30.8044"/><linearGradient id="K" gradientTransform="matrix(.8822 .3175 -.3484 .9681 55.8251 -45.5718)" gradientUnits="userSpaceOnUse" x1="17.9817" x2="253.9732" xlink:href="#a" y1="48.7425" y2="48.7425"/><linearGradient id="L" gradientTransform="matrix(.8822 .3175 -.3484 .9681 55.8251 -45.5718)" gradientUnits="userSpaceOnUse" x1="17.9817" x2="253.9732" xlink:href="#a" y1="55.0364" y2="55.0364"/><linearGradient id="M" gradientTransform="matrix(.8822 .3175 -.3484 .9681 55.8251 -45.5718)" gradientUnits="userSpaceOnUse" x1="17.9817" x2="253.9732" xlink:href="#a" y1="103.9036" y2="103.9036"/><path d="m100.6 194.5v-.2z" fill="url(#b)"/><path d="m157.1 184.3.7-1.7z" fill="url(#c)"/><path d="m158.1 197.9h.1l-.1-.3z" fill="url(#d)"/><path d="m70.6 185.4c1.1-1.1 1.4-2.7 1.1-3.9-.3-1.1-1-1.8-1.7-2.4l-3.8-3.6-9.8 10 2.4 2.2 3.9-4 1.4 1.3c.8.7 1.5 1.4 2.7 1.6 1.3.4 2.7-.1 3.8-1.2zm-6.2-3.5 2.2-2.3.8.8c.7.6 1.7 1.6.6 2.7-1.1 1.2-2.2.2-2.9-.5z" fill="url(#e)"/><path d="m71.6 191.1 4.7 3.6 1.6-2.1-4.7-3.5 1.7-2.2 5 3.7 1.6-2.1-7.6-5.7-8.5 11 7.6 5.8 1.6-2-5.1-3.8z" fill="url(#f)"/><path d="m88.8 197.5c.9-1.4.6-2.9.2-3.7-.5-1.1-1.6-1.7-2.6-2.3l-4.3-2.5-7.1 11.9 2.8 1.7 3-4.8.4.2c.8.5 1.3.8 1.2 2.7-.1.6-.5 3.5-.6 4.2l3.1 1.8.1-1.1c.1-.9.3-2.3.4-3.1s.3-2.3-.2-3.2c.5.1 2.4.2 3.6-1.8zm-4.3-.8c-.4 0-.6-.1-1.3-.5l-1.2-.7 1.7-2.7 1.4.8c.3.2 1.6.9.7 2.3-.2.5-.7.9-1.3.8z" fill="url(#g)"/><path d="m92.6 201 1.2-2.6 5.2 2.3 1.1-2.4-8.2-3.7-5.8 12.6 3 1.4 2.4-5.2 5.2 2.3 1.1-2.3z" fill="url(#h)"/><path d="m107.2 200.4c-4.8-1.4-8.3 1.6-9.3 4.6-1.1 3.5.7 7.6 5 8.9 4.8 1.5 8.4-1.5 9.3-4.6 1.1-3.3-.6-7.5-5-8.9zm1.7 8.1c-.8 2.6-3.2 3.4-5.2 2.8-1.5-.4-3.7-2.1-2.7-5.2.8-2.6 3-3.5 5.2-2.9 2.5.8 3.5 2.8 2.7 5.3z" fill="url(#i)"/><path d="m119.4 203.4-4.9-.8-2.3 13.7 3.2.5.9-5.6.5.1c.9.1 1.5.3 2.1 2.1.2.6.8 3.5 1 4.1l3.5.6-.3-1.1c-.2-.8-.5-2.2-.8-3-.2-.7-.6-2.2-1.4-2.9.6-.2 2.4-.7 2.8-3 .3-1.6-.5-2.9-1.1-3.5-.9-.8-2.1-1-3.2-1.2zm1 4.4c-.1.6-.4 1-.9 1.2-.4.1-.6.1-1.4 0l-1.3-.2.5-3.1 1.6.3c.3 0 1.8.2 1.5 1.8z" fill="url(#j)"/><path d="m132.1 209.9-4-5.4h-2.8l-.5 13.8 3.3.1.3-8.5 3.3 4.6h.5l3.7-4.3-.3 8.4 3.3.1.4-13.8-2.8-.1z" fill="url(#k)"/><path d="m140.6 204.5 1.1 13.9 3.3-.3-1.1-13.8z" fill="url(#l)"/><path d="m155.1 202.6 1.4 8.1-8.3-6.8-2.9.5 2.5 13.6 3.1-.6-1.5-8.4 8.6 7.2 2.7-.5-2.5-13.6z" fill="url(#m)"/><path d="m168 205.7.8 2.4 1.8-.6.5 1.5c-.6.5-1.3.9-2.1 1.2-2.1.7-4.6-.1-5.4-2.5-.6-1.7-.2-3.1.5-3.9.4-.5 1.1-1.2 2.6-1.7 1.6-.5 3.3-.6 5-.3l-1-2.9c-.9-.1-2.8-.3-5.2.5-4.4 1.4-6.6 5.1-5.2 9.2 1.4 4.2 5.7 5.6 9.6 4.3 2-.7 3.8-2 4.7-3.5l-1.8-5.4z" fill="url(#n)"/><path d="m179.1 193.9 2.3 14.6 3-1.7-.5-2.9 5.1-2.8 2.3 1.9 3.1-1.7-11.9-9.3zm7.8 5.7-3.5 1.9-1-5.6z" fill="url(#o)"/><path d="m217.5 174.9c-2.1-1.7-4.2-1-5.7-.2-1.8.9-3 1.6-3.6 1-.1-.1-.8-.8.4-2.2 1.1-1.2 2.8-1.9 3.8-2.3l-2.2-1.9c-2.1.9-3 1.8-3.7 2.6-1.6 1.9-1.8 3.7-1.1 5.1l-1.5-1.6-9.3 8.5 1.1 1.1c-.5-.2-1-.2-1.4-.2-1.3.1-2.2.8-3.2 1.5l-4 2.9 8.4 11.1 2.6-1.9-3.4-4.5.4-.3c.7-.5 1.3-.9 3 0 .5.3 3.1 1.8 3.7 2.1l2.9-2.1-1-.5c-.8-.4-2-1.2-2.8-1.6-.7-.4-2-1.1-3.1-1 .3-.6 1.1-2.2-.3-4.1-.3-.4-.6-.7-1-.9l3.2-2.9 7.8 8.2 2.4-2.2-7.8-8.2 3.4-3.1c.2.3.4.6.7.8 2.3 1.9 4.6.8 6.3-.2 1.6-.9 2.3-1.2 3-.7 1 .8 0 2-.3 2.3-1.2 1.4-3 1.9-4.3 2.3l2.3 1.9c.4-.1 2.6-.9 4-2.6 1.4-1.1 2.8-4.1.3-6.2zm-22.4 15.3c-.2.4-.3.5-1 1l-1.1.8-1.9-2.5 1.3-1c.3-.2 1.5-1.1 2.4.2.4.5.6 1 .3 1.5z" fill="url(#p)"/><path d="m55.8 93.7c-.1 0 0 0 0 0z" fill="url(#q)"/><path d="m77.4 152c-.1-.1-.2-.2-.2-.3 0 0 .1.1.2.3-.5-.7-.9-1.3-1.3-1.9h-.1c-1.8-2.6-3.4-5.4-4.8-8.2 0 2.2-.3 4.3-.9 5.8l-.1.3-.1.1c-.9 2.1-2.6 3.4-4.7 3.6-.3.1-.7.1-1.1.1-.2 0-.4 0-.6 0-.3 0-.7 0-1 0h-.1c-.1 0-.1 0-.2 0-1-.1-1.9-.3-2.6-.7-.3-.1-.6-.3-.9-.6-.1 0-.1-.1-.2-.1l-.1-.1c-.8-.7-1.9-1.9-2.4-3.9v-.1c-.8-3.5-1-9-.9-10 0-.3-.1-1.9-.2-2.8-.2-2-.3-3.2-.3-3.9s0-3.7 0-4.7c-.5.1-.9.2-1.3.3-.1 0-.3.1-.5.2-.1.1-.2.1-.3.1h-.1c-.5.2-.8.4-1.2.6-.2.1-.4.3-.7.4-.4.2-.7.4-1.1.5-.1 0-.1 0-.2.1h-.1c-.3.1-.5.2-.9.3-.2.1-.5.2-.9.3-.5.1-1 .2-1.5.3-.8.1-1.6.1-2.4-.1-1.6-.3-2.8-1.1-3.6-1.7-.1.6-.3 1.1-.5 1.6-.1.1-.1.3-.2.4-.3.6-.7 1.2-1.2 1.8-.2.2-.4.5-.7.7s-.5.4-.7.6c0 0 0 0-.1 0-.4.2-.7.4-1.1.6-.2.1-.3.1-.4.1-.2 0-.3.1-.5.1-.4.1-.9.1-1.4 0 0 0 0 0-.1 0-.3 0-.7-.1-1-.2-.1 0-.1 0-.2-.1-.4-.2-.9-.4-1.3-.7-.1 0-.1-.1-.2-.1l-.1-.1c-.1 0-.1-.1-.2-.1 0 0-.1-.1-.1-.1-.7-.6-1.4-1.2-1.9-1.9 3.4 19.7 11.9 37.7 24.2 52.3l26.7-26.7c-.4-.7-1-1.6-1.6-2.4z" fill="url(#r)"/><path d="m44.1 93.7c0-.1.1-.1 0 0 .1-.1.1-.1 0 0 0-.1 0 0 0 0z" fill="url(#s)"/><path d="m30.9 86.6c.3.1.5.3.7.5 2.1 1.6 2.9 4.1 2.1 6.5-.2.6-.5 1.2-.8 1.8-.1.2-.3.4-.4.5 0 0 0 .1-.1.1-.2.3-.5.6-.7.8.4 0 .6.1.9.1.1 0 .3 0 .4.1h.2c.1 0 .3 0 .4.1.1 0 .2 0 .3.1.5.1 1 .2 1.4.4h.1c.3.1.7.3 1 .4 0-.3 0-.6 0-.9 0-.2 0-.4 0-.5 0-.2 0-.4.1-.5 0-.2.1-.5.2-.7.2-.8.6-1.5 1.1-2.1l.1-.1s.1-.1.1-.1c.3-.3.6-.5 1-.7 1-.6 2-.7 2.3-.8.2-.1.4-.1.6-.2h.2c.7-.2 1.4-.2 2.2-.2 1.5 0 2.9.4 4.2 1.1 0 0 .1.1.2.1.9-.1 2.9-.4 4.6-.7v-.3c-.1-.4-.1-.8-.1-1v-.1-.1c-.2-1.6.2-4.5 1.4-6.9.1-.2.2-.3.2-.4 0-.1.1-.1.1-.2.1-.2.3-.4.4-.5.4-.4.8-.8 1.3-1.1.3-.2.6-.3 1-.5.9-.4 1.7-.5 2-.5h.5c.5 0 1.3.1 1.9.2.4.1.8.1 1.2.2h.1.2.1.1c.5.1 1 .2 1.4.3h.1c.2 0 .3.1.4.1.9.3 1.8.7 2.6 1.2 1-2.1 2.7-5.2 3.4-6.2.9-1.3 1.7-2.6 1.2-3.1-.5-.4-1.2-.2-1.8.2-.5.4-1.6 1.8-3.2 2s-2.9-2.9-3.9-5c-1.4-2.8-3.2-1.3-4.6-2.2-1.8-1.1-1.4-4.1-1.3-5.7s-1-1.6-2.7-3.1c-3.5-3.5-3.1-5.2-2.7-9s4.1-8.7 5.3-10.3c1.3-1.5 1.9-2.3.8-2.7-1.2-.5-1.6 0-4.6 2.6-2.8 2.5-7.1 7.9-9.1 10.6-.1.1-.2.2-.2.3-.1.1-.1.2-.2.3 0 0-.1.1-.1.1v.1c-2.1 2.9-4.7 7.4-5.9 9.8-4.1 8.6-7 16.6-8.9 24.8.4.2.8.3 1.1.5-.3.3-.1.4.1.5z" fill="url(#t)"/><path d="m59.9 82.5c.1 0 .1 0 0 0z" fill="url(#u)"/><path d="m235.9 145.3c-.3-.1-.5-.2-.7-.4-1.2-.5-1.8-1.6-1.8-2.9 0-.8.4-1.5.6-1.8.1-.3.3-.7.7-1.6.2-.5.5-1.1.7-1.7.1-.4.3-.7.4-1.1.3-.7.3-1 .3-1.2-.2-.4-.4-.8-.4-1.3-.4.1-.9.2-1.5.3-1.2.2-2.3 0-3.4-.3-.1 0-.1 0-.2-.1-.6-.2-1.2-.5-1.8-.9-.1-.1-.3-.2-.4-.3s-.2-.2-.3-.2l-.1-.1v1 2.4.5c0 1.7 0 2.7-.1 3.3v.1c0 .2 0 .3-.1.5v.1.1.1c-.3 1.3-1.1 2.4-2.1 3.3-1.3 1.1-2.9 1.6-4.9 1.7-.1 0-.2 0-.3 0-2.5 0-4.5-1-6.1-3-2.1-.1-6.5-.2-9-.3-.5 0-.9 0-1.2 0-1.8 0-3.5.4-3.9.6 0 0 0 0-.1.1-.1 0-.1.1-.2.2-.3.3-.8.6-1.4.9-.2.1-.5.3-.9.4h-.1c-1.1 2-2.3 3.9-3.5 5.6l.3.3 29.3 25c6.2-8.6 11.1-18.2 14.6-28.4-.1 0-.3-.1-.3-.1-.9-.3-1.6-.6-2.1-.8z" fill="url(#v)"/><path d="m205.6 25.5-.6.7-21.6 24.5-.8.9c8.1 7.4 14.6 16.7 18.8 27.3h.3 1.5.1 2.3 2.5.4.1c1 0 1.7-.1 2.4-.1h1.1c2.3 0 3.6.2 5.2.6h.1c.1 0 .2.1.3.1s.1 0 .2.1c1 .4 1.9 1 2.6 1.7.3.3.6.7.8 1.1.3.5.5 1 .6 1.6.2.9.1 1.9-.1 2.8-.1.3-.2.6-.3 1 1.1.1 1.8.2 2.4.3h.1.1c1.3.4 2.5 1.1 3.4 1.9.2.1.3.3.4.4.2.2.3.3.5.5l.1.1.1.1.1.1.1.1c.2.2.3.5.4.7.1.3.3.5.3.8.3.9.3 1.8.1 2.9v.2c-.2.8-.5 1.7-.9 2.4.8-.2 1.7-.4 2.8-.4h.2c-.3-.5-.4-1.1-.6-1.6v-.1-.1-.1c-.3-1.3-.2-2.8-.2-4 0-.7 0-1.4 0-1.8-.3-1.8.1-5.7.3-6.9.3-1.2 1.2-3.2 4.8-3.8.7-.1 1.4-.2 2.1-.2h.8c.5 0 1 .1 1.6.2-6.2-21.1-18.5-40-34.9-54z" fill="url(#w)"/><path d="m183.2 163.8c0 .1 0 .1 0 0-1.1 1-2.1 1.9-3.2 2.7-.5.4-1 .8-1.5 1.2-1 .8-2.1 1.5-3.2 2.3l4.3 7.3c.8 1.4 1.1 2.5 1.2 3.5 0 1.6-.8 2.7-2.1 3.5-.7.4-1.5.7-2.2.7-1.5 0-3-.9-4.4-3.2l-4.3-7.4c-.6.3-1.2.6-1.8.9-.1 0-.1.1-.2.1s-.1.1-.2.1c-.9.4-1.9.8-2.9 1.2-.1 0-.1 0-.2.1-.1 0-.1.1-.2.1-.8.3-1.7.6-2.5.9l-2.4 6.4-1.2-.9-4.2-3.3c-1.4.3-6.8 1-6.8 1l10.9 8.4 2.4 8.5 2.8-.8 2.9-.9v-.1l-2.4-8.4 2.7-7.4 3.5 5.9c1.9 3.3 4.6 4.4 7.2 4.3 2.3 0 4.5-.9 6.2-1.9 2.8-1.6 5.7-4.7 5.7-8.5 0-1.4-.4-2.9-1.4-4.5l-1.5-2.6 8.2 8 2.1-1.7 2.4-2.1-8-7.7 15.4.2 1.8-2.2 1.3-1.6-13.8-12.9c-.1 0-.1 0-.1 0-.5.8-1.1 1.5-1.7 2.2-.6.8-1.3 1.6-2 2.4l7.1 6.4zm-26.1 20.5.6-1.7zm1 13.6-.1-.3z" fill="url(#x)"/><path d="m133.8 181.5-.7 10.5-8.5-11.2-.6-.1c-1.3-.2-2.5-.4-3.8-.6s0 0-.1 0h-.1c-.1 0-.1 0-.2 0-4.7-.9-9.2-2.4-13.4-4.2 0 0-1.1-.5-1.1-.5-.1 0-.1-.1-.2-.1h-.1c-1-.4-1.9-.9-2.8-1.4l-.2.3-2.3 3.9-1 1.7c-3.7-1.8-6.3-3.5-7.4-4.5l-.2-.1.3-.5.3-.5 2.9-4.8c-1.1-.7-4.8-3.3-4.8-3.3-.1.1-.1.3-.2.4 0-.1.1-.1.1-.2l-.1-.1-.1.2v.1s0-.1-.1-.1c-.2-.4-.4-.8-.7-1.3-.6-1-1.5-2.1-2.7-3.2-1.6-1.4-3.2-2.1-4.6-2.3-.3 0-.6 0-.8 0-1.4.1-2.7.8-3.6 1.8-1.1 1.2-1.4 2.6-1.4 4 .1 1.5.7 3.1 1.4 4.5.5 1 .9 1.9.9 2.7 0 .4-.1.8-.3 1.1-.1.1-.3.4-.8.4-.4 0-1.1-.2-1.9-.9-1.9-1.7-2.7-4.4-3.1-5.6v-.1l-3.2 3.6c1.3 3.2 3.5 5.4 3.9 5.7 1.8 1.7 4.1 2.6 5.9 2.5 1.4-.1 2.7-.7 3.8-1.9 1-1.1 1.3-2.3 1.3-3.6-.1-1.6-.8-3.5-1.7-5.7-.4-1-.6-1.6-.7-2.1 0-.4.1-.6.3-.9.2-.2.5-.4.9-.4s1 .2 1.6.7c.8.7 1.3 1.5 1.7 2.3.6 1.2 1 2.5 1.2 3.3v.1.6l-6.9 11 3 2.2 1.8 1.3 4-6.7.3.2c1.4 1 3.7 2.6 7 4.3l.2.1-.1.1-3.9 6.6 2.4 1.2 2.9 1.4 7.3-12.3-4.2 13.7s5 2 7.6 2.7c2 .6 4.8 1.3 5.9 1.6l.5.2v-.1l1.2-3.7-2.7-.8c-2.6-.7-5.2-1.5-5.8-1.7 0-.1 0-.1.1-.2v-.1l1.2-3.7c1.5.5 6.6 2 7.8 2.3v-.1l1.1-3.6-1-.3c-2.3-.6-6.3-1.9-6.9-2.1v-.1-.1l1-3c.9.3 2.9.9 7 1.9l1.5.4-2.2 15.5 3.2.5 1.6.2 1.1.1 1.2-10.5 8.9 11.3h2.3l3.2-.1 1.3-19.5c.1-.4-5-.3-5.9-.3zm-33.2 13v-.1z" fill="url(#y)"/><path d="m155.2 35.3h.1c7.4 1.8 14 5.1 18.7 7.9 4.8 2.9 7.7 5.3 7.7 5.3l.1.1.1-.1c.1.1.1.1.1.1l.1.1.1-.1s14.6-17.8 20.1-24.4l.1-.1-.1-.1c-17-13.9-37.5-19.2-37.5-19.2h-.1v.1c-.1 0-.2 0-.2 0h-.1v.1s-6.3 20.4-9.1 30.3zm12.2-26.6c1.3.5 5.7 2.1 10.9 4.4 6.2 2.8 12.3 7 18.4 11.4-1.7 2.1-5.8 7.1-9.5 11.6-3.3 3.9-6.2 7.5-7 8.3-1.9-1.5-7.1-5.3-20.7-10.5z" fill="url(#z)"/><path d="m182.7 39h.2s.1.1.1.1h.2c1.4-1.5 1.4-1.5 1.4-1.5v-.1s0-.1-.1-.1c0 0-1-.7-2.7-1.8l.1-.2 2.9.5h.3.1v-.1l-.4-4.2c.7.6 1.3 1.1 2 1.8h.1.1s.1.1.1.1h.1.1c2.6-3.5 4.9-6 4.9-6s0-.1 0-.2c0 0-2.8-3.2-9.8-7.2.2-.3.3-.6.5-.9 3 1.8 6.2 4.1 9.5 6.8h.2s0 0 .1-.1c0 0 .1.1.1.1h.2c1-1.1 1.1-1.2 1.2-1.4v-.1s-4.1-3.5-10.1-7.1c.1-.2.2-.4.3-.5 0-.1 0-.1 0-.2-1.8-1.1-4.8-2.4-4.8-2.4-.1 0-.1 0-.2.1-.1 0-.2-.1-.2-.1-.1 0-.1 0-.2 0v.1s0 .1-.1.2c-3.9-1.8-6.6-2.9-11-4.4h-.1c-.1 0-.1 0-.2-.1h-.1s-.1 0-.1.1l-.5 1.6c0 .1 0 .1.1.2 0 0 4.6 1.4 10.9 4.4-.2.3-.4.7-.6 1.1-2.7-1.3-5.8-2.6-9.4-3.9h-.1c-.1 0-.1 0-.2-.1h-.1s-.1 0-.1.1l-2.7 8v.1s0 .1.1.1c0 0 3.7.9 8.6 3-.3.5-.5.9-.7 1.2-3.2-1.3-5.6-2.1-7.9-2.7h-.1c-.1 0-.1 0-.2-.1h-.1s-.1.1-.1.1l-.1 1.7c0 .1 0 .1.1.1 0 0 2.6.8 5.8 2.1 4.3 1.8 8.4 3.8 11 5.5.1.3.2.6.2.9l-3-1.7h-.1s-.1 0-.1.1l-.2-.1h-.1s-.1 0-.1.1l-.6 1c-4-2.3-9.2-5-14.4-6.6h-.1c-.1 0-.1 0-.2-.1-.1 0-.1 0-.2.1l-.6 1.7c0 .1 0 .1.1.2 0 0 7.1 2.7 14.3 6.8l-1.8 3.4-2.7-1.3h-.1l-.2-.1h-.1s-.1 0-.1.1l-.5 1.2c0 .1 0 .1.1.2l6.8 3.7h.1.1l.2.1h.1s.1 0 .1-.1l2.4-4.6c1.1.3 1.7.8 2.3 1.3zm-8-16.3c-2.6-1.2-4.6-1.9-5.1-2l.3-1c1.8.5 3.6 1.2 5.3 1.9-.1.4-.3.8-.5 1.1zm1.5-2.8c-2.4-1.1-4.3-1.7-5.5-2.1l.5-1.3c2 .7 3.9 1.5 5.6 2.3-.2.4-.4.7-.6 1.1zm5.4 1.5c3.6 2.2 5.6 4 6.1 4.4-.1.1-.3.4-.6.7-2.1-1.6-4.2-3-6.1-4.1.2-.3.4-.7.6-1zm-1.6 2.8c2.7 1.6 4.7 3.2 5.8 4-.2.2-.4.5-.6.8-1.9-1.4-3.8-2.7-5.8-3.8.2-.3.4-.7.6-1zm-2.3 3.8c.2-.3.4-.7.7-1.1 1.9 1.1 3.9 2.3 5.7 3.8h-1.8c-.4-.2-2-1.3-4.6-2.7z" fill="url(#A)"/><path d="m118.5 9.8h.1v.1h.1s8.4-1.8 12.9-6.8l.1-.1-.1-.1c-1.5-1.8-2-2.7-2-2.7l-.1-.2-.1.1v.1l-.2-.2-.1.1s-5.6 6.4-11.3 7.4h-.1l.7 2.3z" fill="url(#B)"/><path d="m132.3 24.6v-.1l.3.1 3.4-10.9-2.7-1.1v.1l-.3-.1-3.2 11.1.2.1z" fill="url(#C)"/><path d="m151.8 13.3-3.4 16.4c-.5 0-2.5 0-3.8 0-.4 0-.7 0-.9 0h-.1v.1c.1 1.2.3 2.3.3 2.3v.1h.1.2v.1h.1 1.3c.9 0 2.1 0 3.3.2.7.1 1.4.2 2 .4h.1v-.1h.2.1v-.1c.8-3 3.7-14.9 4.6-18.7.7.1 1.4.3 2 .5h.1v-.1h.2.1v-.1c.9-2.4.9-2.4.9-2.4v-.1l-.1-.1s-3.5-1.8-11.5-2.2c-.3 0-.6 0-.9 0h-.1l-.2 2.8h.1c.2.3 2.3.5 5.3 1z" fill="url(#D)"/><path d="m148.7 4.3s5.5.9 10.6 2.6h.1v-.1c.1 0 .1 0 .2.1h.1l.1-.1c1.2-2.5 1.3-2.9 1.3-2.9v-.1h-.1s-6.1-1.8-12.2-2.2h-.1c-.1 0-.1 0-.2 0h-.1z" fill="url(#E)"/><path d="m77.7 23.3.1.1.1-.1s.7-.5 1.8-1.2c.2-.1.4-.3.6-.4 1.7-1.1 4.2-2.8 6.8-4.3l1 1.2.1-.1.1.1.1-.1 3.1-2.1-.8-1.3c1.1-.6 2-1 3-1.5 1.3-.7 3-1.4 4.6-2l.8 1.5.2-.1.1.1 3.4-1.9-.4-1.2c4.5-1.5 9.2-2.8 14.1-3.7h.1v-.1c.1-1 .2-2.6.2-2.6v-.2h-.2s0 0-.1 0v-.1h-.2s-6.1 1-14.8 3.9l-.7-1.9-.1.1s0 0-.1 0v-.1l-.1.1s-2.6 1.1-4.2 1.9l-.1.1.8 1.7c-1.1.5-2.5 1.1-3.7 1.6-1.6.7-2.7 1.2-3.9 1.9l-1.1-1.7-.1.1s0 0-.1 0l-.1-.1-.1.1s-3.1 1.9-3.9 2.6l-.1.1 1 1.4c-3.1 1.8-5.4 3.2-6.9 4.2-.2.1-.4.3-.6.4-1.3.9-1.9 1.3-1.9 1.3h-.2z" fill="url(#F)"/><path d="m167 30.2-.1.2-.2-.2-2.8 2.1.1.1 4.5 5.2.1-.1.2.2 2.4-1.9z" fill="url(#G)"/><path d="m131.5 9.7c-.6-3-.6-3-.6-3v-.2l-.2.1s0 0-.1.1v-.2l-.2.1s-5.2 4.3-11.2 5.7h-.1l.9 2.6h.1.1v.1h.1s.9-.1 2.5-.6l3.2 17.9h.3v.1l3.6-.7-2.9-19c1.3-.8 2.8-1.7 4.5-3z" fill="url(#H)"/><path d="m132.6 10.3 3.9.1v21.6h.3l3.4.1.5-21.6 4.7.2.5-2.4h-.2-.1-.2l-4.7-.1.2-3.6c.8 1 2.3 3.2 2.3 3.2l.1.1.1-.1s0 0 .1-.1l.1.1.1-.1s.4-.4 1.9-1.7l.1-.1-.1-.1c-.6-.6-2.2-3.6-2.2-3.6l-.1-.1-.2.2-.1-.1-2.1 2.1.2-3.8h-.3l-4.1-.1-.3 7.7-4.2-.1-.1 2.3z" fill="url(#I)"/><path d="m144.7 19.5c-.2-2.3-.2-5.3-.2-5.4v-.1l-2.6-.2h-.3v.1s.5 8.4.5 9c.1.7 1 2.1 3 3.3l.1.1.1-.1s.1.1.1.1l.1.1.1-.1c.9-1.3 1.4-1.9 1.4-1.9l.1-.1-.1-.1s-.9-.8-1.3-1.3c-.4-.7-.8-1.2-1-3.4z" fill="url(#J)"/><path d="m90 33.5c-.2.2-.4.3-.6.5-.5.4-1.1.8-1.5 1.1l-.2.1.2.1c.6.5 1.2 1.1 1.5 1.4.2.2.3.3.3.3l.1.1.1-.1.1.1.1-.1s.4-.4.9-1c0 0 .1-.1.1-.1.2-.2.3-.4.5-.6.4-.5.9-1 1.4-1.6l.7.9.1-.1.1.1.1-.1s2-1.3 5.5-3 8.5-3.9 14.3-5.8h.1v-.1c-.3-1.1-.6-1.7-.6-1.7v-.1h-.1s0 0-.1 0v-.1h-.1s-3.7.9-8.5 3c.2-.6.5-1.7.8-3l2.2.4h.3l.5-3.3h-.3l-2-.2c.1-.3.1-.6.1-.9.1-1 .3-2.7.5-4.3 1.3-.5 2.5-.9 3.1-1.2-.2.9-.5 2.2-.5 3.4s.3 2.3 1.4 3c2.2 1.3 4.4 1.7 6.6 2h.1.1.1v-.1c.3-1.9.8-2.5.8-2.5l.1-.2h-.2s-3-.6-4.2-1.3c-.6-.4-1.1-.8-1.1-1.9 0-.8.2-1.9.8-3.6v-.1-.1c-1.3-1.6-1.7-2-1.7-2l-.1-.1-.2.1-.1-.1-4.9 1.9c.1-.6.1-1 .1-1v-.1h-.3l-2.9-.1v.1s-.1 1.1-.3 2.4l-6.4 2.4 1.9 1.9h.1.1l.1.1h.1s1.7-.7 3.8-1.5c-.2 1.6-.4 3-.5 3.3 0 .1 0 .1-.1.3l-2.2-.2-.3 2.8 1.8.3c-.4 1.4-.8 2.9-.9 3l-.1.1h.1c1 .3 1.9.6 2.4.7-2.7 1.2-5.8 2.7-9 4.5 1.2-1.5 2.3-3.1 2.6-4.2l.1-.4-.3.3.1-.4-.3.3c-.6.6-1 .8-1.2 1l.1-.2c.6-.5 1.1-.9 1.3-1.1v-.1-.1c-.6-1.2-.6-1.2-.6-1.2l-.1-.1-.1.1-.1-.1-.1.1s-.6.4-1.3 1l-.6-.9-.1.1-.1-.1-2.7 1.8.8 1.1c-.7.5-1.4 1-1.8 1.2l-.1.1.2-2.6c1.2-.8 2.6-1.7 4-2.5l5.5 1.2.2.1.4-2.8h-.2l-3.5-.2c.4-.2.8-.5 1.3-.7l.1-.1v-.1c-.8-1.9-1.1-2.5-1.1-2.5l-.1-.1-.1.1s0 0-.1 0l-.1-.1-.1.1s-1.9 1.2-4.4 2.7l-.7-.8 3.1-1.9-.8-2.1-.2.1-.1-.1-3.6 2.2-.6-.8v.1l-.1-.1-4.5 2.6.8 1-2.7 1.6 1.6 1.7.1-.1.1.1 2.4-1.5.7.9c-1 .6-1.9 1.2-2.6 1.7-.2.1-.4.3-.6.4-.5.4-1 .7-1.3 1l-.1.1 1.9 2.2.1-.1.1.1.1-.1s.5-.4 1.3-1c.2-.1.4-.3.6-.4s.4-.3.6-.4c-.1.3-.2.6-.3.9s-.2.5-.3.8c-.3.8-.6 1.4-.8 1.6l-.2.2h.2.3c.9.1 1.8.2 2.4.2.5 0 .8.1.8.1h.1v-.1-.1l.2-2.8 1.1 1.2.1-.1.1.1.1-.1s.7-.4 1.5-1l.5.7c-.4.6-1.8 2-3.1 3.2z" fill="url(#K)"/><path d="m121.8 26.4v-.1c-.5-1.5-.5-2-.5-2h-.1v-.1s-.1 0-.2.1v-.1s-17.5 5.6-31.8 14.5c-.1.1-.3.2-.4.3h-.4l.1.1s.7.9 1.2 1.6l.1.1.1-.1.1.1.1-.1c.3-.2.6-.4.9-.6 1.6-1 4.2-2.6 7.9-4.5l-.6 1.8c-1.8 1-3.7 2-5.6 3.2l-.2.1 2.7 2 .1-.1.2.1h.1s13.5-9.2 16.6-11.2c.3-.1.6-.2 1-.2h.2c.1 0 .3.1.4.1 1.1.5 3.7 1.9 3.7 1.9l.1.1v-.1c.1 0 .1.1.1.1l.1.1 1.8-3.3-.1-.1s-2.1-1.1-3.8-1.8c3.4-1.2 5.8-1.9 5.8-1.9zm-10.5 5c-1.4.6-4.7 1.9-8.7 3.9.2-.6.5-1.3.9-1.9.7-.3 1.3-.6 2-1 2.1-1 4.2-1.9 6.2-2.6z" fill="url(#L)"/><path d="m144.4 146.2c.6.5 1.4 1.2 2.9 1.8 1.9.8 2.8.8 3.4.8h.2.2v.1c.2.2.7.9 2.6 1.5 1.9.5 3.7.3 4.2.1s.9-.2 1.8 0c.6.2 1.1.5 2.5.7.4 0 1 .1 1.7.1 1.2-.1 1.9-.1 2.7 0 .6.1 1.3.4 1.4.6s.6 1 .6 1.9c.1.9 0 1.2 0 1.7s.1.8.8 1.3 1.3.9 1.4 1.1c.2.2.4.7.9 1.1.5.5 1.4 1.3 1.5 1.5.2.2.5.8.6 1s.4 1.2.5 1.3c.1.2.3.6.6.9.4.2.8.5 1.1-.1.1-.2.2-.5.3-.8.1-.5.1-1 .1-1.4 0-.5-.4-2.6-.6-3.1-.3-1-.7-1.8-.9-2.2-.1-.2-.3-1-.5-1.4-.7-1.3-1.7-2.8-1.9-3.1s-.7-1.5-.7-1.5.1-.2-.1-.4c-.1-.2-.4-.5-.6-.8-.1-.2-.3-.5-.5-.8-.1-.2-.4-.7-.5-.9-.1-.3-.3-.9-.6-1.5-.3-.5-.9-1.5-1.2-1.9-.1-.2-.5-.8-.7-1.2-.5-.7-.8-1.2-.9-1.5-.3-.8-.8-1.3-1-1.7-.2-.3-1.8-2.6-2.1-3.4-.4-.8-.9-1.8-1.7-2.9-.7-1.2-1.7-2.7-3-4.7s-2.4-4-3.3-5.7-1-1.2-2-4.3c-.2-.5-.1-.5-.6-1.7-.5-1.1-1.2-3.2-1.3-3.4-.1-.3-.3-1.4-.4-2-.1-.7-.6-2.6-.9-3.1-.1-.3-.2-.2-.1-.7 0-.6 0-1.3-.1-2.1-.1-.7-.2-1.1-.1-1.6.1-.4.2-.7.2-1.4s0-1.4.1-1.9c.1-.4.4-2.6.4-3.7 0-.5-.1-.8-.2-1.2-.1-.9-.1-2-.1-2.9s.2-2.3.1-4.4c-.1-1.7-.4-2.2-.5-2.6-.1-.8-.3-1.2-.5-1.6s-.5-.8-1.1-1.2c-.3-.2-.5-.4-.9-.7-.8-.6-1.5-.9-3.9-1.5-1-.2-2.8-.7-3.3-.8-.4-.1-.9-.3-1.5-.5-.3-.1-.6-.3-.8-.5-.9-.6-1.3-1.1-1.4-1.8-.2-.7-.1-1 0-1.3s.2-.7.3-.8.3-.5.5-.8.3-.3.4-.7 0-.7-.2-.9c-.1-.1-.3-.1-.4-.1s-.1 0-.2 0-.2-.1-.3-.1c0 0-.1-.1-.2-.2s-.2-.4-.2-.5-.1-.3-.1-.3h-.1s0 0-.2 0c-.1 0-.2 0-.2 0 0-.1 0-.2 0-.3s-.1-.3-.1-.3 0 0-.1 0-.2 0-.3-.1c-.1 0-.2-.1-.3-.1v-.1s0 0 0-.2 0-.3 0-.3 0-.1 0-.2c0 0-.1-.1-.2-.2-.1 0-.1-.1-.2-.1s-.7 0-.8 0-.4 0-.4 0-.1 0-.2 0-.2 0-.2 0 0 0-.1 0c0 0-.1 0-.1-.1 0 0-.1-.1-.1-.1s0-.1 0-.1 0-.2 0-.2 0 0 0 .1-.1.1-.1.1c-.1 0-.2 0-.2 0s0 0 0 0-.1-.1-.1-.2-.1-.1-.1-.2c0 0-.2 0-.5 0-.1 0-.3-.1-.3-.1s0 0 0-.1-.1-.1-.2-.2-.9-.7-2-.5-1.9 1.2-1.9 1.2c-1.1-.2-1.1.1-1.5.3-.3-.1-.5.1-.5.1s-.4-.3-1.1-1-1.5-1.1-2.3-1.3c-.8-.3-1.6.1-1.7.2-.4.2-.8.6-1.1 1.2-.2.4-.2 1.6-.1 1.9.1.4.5.9.5.9s-.2.6-.3.9 0 .8.1.8c0 0 .2.8.9 1.3.6.4.9.4 1.3.3s.8-.4 1.1-.6 1.1-.5 1.3-.6.5-.2.5-.2 0 .1 0 .2c0 .3.3.7.5.8s.6.2.6.2.1.6.2.9c.4 1.1.7 1.3 1.3 1.9.4.4 1.6.9 2.1 1s.8.1.9.2c.1 0 .2.1.3.1s.1 0 .4.3c.3.2.3.3.4.4s.1 0 .1 0-.1-.1-.1-.2-.1-.2-.2-.2c0 0-.2-.2-.2-.2s.1 0 .1.1c0 0 .4.4.6.5s.4.2.6.3 0-.1-.1-.1c0 0-.3-.2-.3-.2-.1-.1-.2-.3-.2-.3s.1 0 .2.1c0 .1.3.2.5.3 0 .1.1.1.2.1s.1 0 0 0-.1-.1-.3-.3c.1.1.2.1.2.1s.4.4.6.5.9.8.9.8-.2-.1-.4-.1-.7-.1-1.6-.3-1.9-.2-1.9-.2 0 0-.6-.3-1.9-.6-2.8-.9c-1-.3-3.1-.8-4.2-1.1-.3-.1-.6-.2-.7-.3-.4-.1-.7-.3-.8-.4-.3-.2-.8-.3-1.1-.4-.4-.1-1.5-.5-1.5-.5s-1.5-1.7-2-2.3-1.6-1.8-2.3-2.7c-.4-.6-1.2-1.5-1.7-2.2-.1-.2-.3-.4-.4-.6-.8-1-2.2-2.5-2.7-3.3s-1-1.5-1-1.5c-.1-.3-.2-.4-.4-.4h-.1s0 0-.1 0-.1 0-.1.1c-.1 0-.1.1-.2.2-.1 0-.2-.1-.2-.2-.1-.3-.4-1.2-.5-1.8-.1-.4-.1-.7-.1-.7 0-.1-.1-.3-.3-.4s-.4-.1-.5-.1-.1-.1-.1-.4-.1-2.1-.3-2.7c-.2-.5-.6-1.3-1.3-2s-1.1-1.3-1.3-1.6-.4-.5-.9-.5-1.1 0-1.1 0c-.4 0-.5.1-.5.5v2.4c0 .4.1 1.3.3 1.7.1.5.6 1.7.7 2s.3.5.6.9c.2.4.9 1.5 1.2 2.1s.3.6.7 1.3c.3.7.6.9.7 1.1s0 .4.3.7c.2.3.6.9.7 1-.1.3-.2.5-.3.7-.1.1-.2.3-.2.5-.2.5.1.3-.4.9-.1.2-.3.5-.5.9-.4-.2-.7-.4-1-.6-.4-.2-.7-.5-.8-.5-.1-.1-.4-.1-.6 0-.2 0-.3.3-.4.4s-.2.2-.3.1c-.2-.1-.6-.2-.8-.2s-.8-.4-1.5-.9-1.1-.9-1.6-1.2c-2.1-1.5-4.6-3.7-6.9-6.4-4-4.8-.7-12 2-14 .1-.1.3-.2.4-.3l-6.5-8.1-.1-.2-12.7-16-.2-.3c-2.1 1.5-7.2 5.9-8.8 8.6-1 1.6-1.9 3.1-2.6 5.8-1.4 5.5-.7 9-.7 9 1.2 8.7 6.8 13.3 13 17.1 1.8 1.1 3.8 2.3 5.8 3.4 1 .6 1.8 1.2 2.2 1.4 1.1.7 3.8 2.5 5.4 3.2s3.3 1.4 4.2 1.7c.9.4 2.2 1.1 3.3 1.4s2 .7 2.3.9c.1 0 .2.1.3.1 0 0-.1.1-.2.2s0 .3.1.5c.2.2.6.9 1.3 1.3.7.5 1.2.5 1.5.5.2 0 .4 0 .6.1s.5.2.9.3c-.1.6-.2.9-.3 1.3s-.1.6-.1 1c0 .3-.1.6 0 .9.2.3.2 1.3.1 1.9s-1.8 4.6-2.2 7.8.2 6.4.4 7.3c.2 1 .9 3.6 1.2 4.2s.7 1.4.9 1.8c.1.2.1.4.2.5-.1-.3-.3 1-.3 2.8 0 1.1 0 2.3.4 4.2.1.5.6 1.8.8 2.7.2.7 1 2.5 1.5 3.3.4.7 1.4 2.1 1.9 2.8s.8 1.1 1 1.3c.1.2.2.4.3.8.1.5.2 1.4.6 2.6 0 .4.2 1 .5 1.6.3.8 1.1 2.8 2.6 4.9s2.3 2.7 3.1 3.4 3.1 2.5 4.5 3.2 4.7 2.2 5.8 2.4c1.1.3 1.9.3 2.2.4s.2.3.7.9 1.8 1.9 3.4 2.9c1.7.9 4.1 2 7.3 2.4s5.9-.1 6.4-.2c-.2-.1-.1 0 .1.1zm-23.9-75.9c0-.2-.1-.6.2-.8s.9-.1 1.2 0 1 .4 1.3.8c.2.2.3.3.3.4-.1-.1-.6-.4-1.2-.5s-.8-.2-1.4.2c-.1.1-.2.1-.3.2 0-.1-.1-.2-.1-.3zm2.6 2.4c-.2.1-.6.3-1 .5-.3.1-.4.3-.6.3s-.5-.2-.6-.3-.2-.5.1-1c.2-.5.8-.4 1-.4s.8.2 1.1.2.8.3.8.3-.5.2-.8.4zm-34.7-4.2c-2.1-1.1-11.5-6.3-15.8-11.1-4.1-4.7-6.3-9-7.3-14.3-1-5.4 4.3-9.7 4.3-9.7s0 0-1.3 2.7c-1.3 3.3-2.6 7.6 1.2 14.7s9.8 11.2 12 12.6 7.9 5.6 6.9 5.1zm14 5c-.1.3-.2.6-.3.9-.1-.1-.3-.1-.4-.2-.4-.2-.5-.5-.8-.8-.2-.3-.5-.3-1.1-.7-.7-.4-1.4-.2-1.6-.1s-.4.2-.5 0-.4-.2-.6-.3-1.1-.7-2.1-1.3c-1.6-1.1-3.1-2.6-4.6-4-5-4.8-9.2-8.4-10.8-13.5-1.6-5 .8-11.5 1.1-12.6s1.3-.8 1.1-.6c-1.4 2.3-1.9 5.9-1.8 9.4.2 3.5 1.7 6.9 4.4 10s5.3 5.8 8.8 7.6c1.5.8 4 1.9 4.6 2.2.5.3 1.2.6 1.6.7.1.3.3.5.5.7s.4.5.5.8.2.6.7.7c.4.1 1.1.2 1.7.2-.2.4-.4.7-.4.9zm22.4 9.3c-.3-.1-.8-.2-1.1-.2-.5-.6-.7-.7-1.3-1-.4-.2-.5-.2-.6-.5.1 0 2.3.6 2.6.7s3 .9 3.5 1.1 1 .4 1.4.5c.3.1.9.4 1.8.7.4.2 1.3.5 1.5.5.2.1.7.2.7.2s0 0-.1 0c-.2 0-1-.2-1.4-.2-.8-.1-1.4-.3-2.3-.5-.5-.1-4.3-1.2-4.7-1.3zm13.7 11.2c-.7 0-1.4.3-1.7.4-.1-.1-.2-.3-.4-.3s-.4-.1-.5-.2-.3-.1-.4-.2-.2-.2-.6-.3-.6-.3-.7-.4c-.2-.1-.3-.5-.8-.9-.4-.4-1.3-1.3-2.2-2-.8-.7-3.6-2.6-4.1-2.9 0 0-.6-.4-.7-.5s1 .1 1.7.3c1 .3 2.5.7 3.1 1s1.2.5 1.7.6.8.2 1.5.4c.3.6.6.5.9.6.2.5.3.3.8.6s1.3 1.2 2.3 2.2c.6 1 .3 1.3.1 1.6z" fill="url(#M)"/><g fill="#fed16d"><path d="m100.6 194.5v-.2z" opacity=".2"/><path d="m157.1 184.3.7-1.7z" opacity=".2"/><path d="m158.1 197.9h.1l-.1-.3z" opacity=".2"/><path d="m70.6 185.4c1.1-1.1 1.4-2.7 1.1-3.9-.3-1.1-1-1.8-1.7-2.4l-3.8-3.6-9.8 10 2.4 2.2 3.9-4 1.4 1.3c.8.7 1.5 1.4 2.7 1.6 1.3.4 2.7-.1 3.8-1.2zm-6.2-3.5 2.2-2.3.8.8c.7.6 1.7 1.6.6 2.7-1.1 1.2-2.2.2-2.9-.5z" opacity=".2"/><path d="m71.6 191.1 4.7 3.6 1.6-2.1-4.7-3.5 1.7-2.2 5 3.7 1.6-2.1-7.6-5.7-8.5 11 7.6 5.8 1.6-2-5.1-3.8z" opacity=".2"/><path d="m88.8 197.5c.9-1.4.6-2.9.2-3.7-.5-1.1-1.6-1.7-2.6-2.3l-4.3-2.5-7.1 11.9 2.8 1.7 3-4.8.4.2c.8.5 1.3.8 1.2 2.7-.1.6-.5 3.5-.6 4.2l3.1 1.8.1-1.1c.1-.9.3-2.3.4-3.1s.3-2.3-.2-3.2c.5.1 2.4.2 3.6-1.8zm-4.3-.8c-.4 0-.6-.1-1.3-.5l-1.2-.7 1.7-2.7 1.4.8c.3.2 1.6.9.7 2.3-.2.5-.7.9-1.3.8z" opacity=".2"/><path d="m92.6 201 1.2-2.6 5.2 2.3 1.1-2.4-8.2-3.7-5.8 12.6 3 1.4 2.4-5.2 5.2 2.3 1.1-2.3z" opacity=".2"/><path d="m107.2 200.4c-4.8-1.4-8.3 1.6-9.3 4.6-1.1 3.5.7 7.6 5 8.9 4.8 1.5 8.4-1.5 9.3-4.6 1.1-3.3-.6-7.5-5-8.9zm1.7 8.1c-.8 2.6-3.2 3.4-5.2 2.8-1.5-.4-3.7-2.1-2.7-5.2.8-2.6 3-3.5 5.2-2.9 2.5.8 3.5 2.8 2.7 5.3z" opacity=".2"/><path d="m119.4 203.4-4.9-.8-2.3 13.7 3.2.5.9-5.6.5.1c.9.1 1.5.3 2.1 2.1.2.6.8 3.5 1 4.1l3.5.6-.3-1.1c-.2-.8-.5-2.2-.8-3-.2-.7-.6-2.2-1.4-2.9.6-.2 2.4-.7 2.8-3 .3-1.6-.5-2.9-1.1-3.5-.9-.8-2.1-1-3.2-1.2zm1 4.4c-.1.6-.4 1-.9 1.2-.4.1-.6.1-1.4 0l-1.3-.2.5-3.1 1.6.3c.3 0 1.8.2 1.5 1.8z" opacity=".2"/><path d="m132.1 209.9-4-5.4h-2.8l-.5 13.8 3.3.1.3-8.5 3.3 4.6h.5l3.7-4.3-.3 8.4 3.3.1.4-13.8-2.8-.1z" opacity=".2"/><path d="m140.6 204.5 1.1 13.9 3.3-.3-1.1-13.8z" opacity=".2"/><path d="m155.1 202.6 1.4 8.1-8.3-6.8-2.9.5 2.5 13.6 3.1-.6-1.5-8.4 8.6 7.2 2.7-.5-2.5-13.6z" opacity=".2"/><path d="m168 205.7.8 2.4 1.8-.6.5 1.5c-.6.5-1.3.9-2.1 1.2-2.1.7-4.6-.1-5.4-2.5-.6-1.7-.2-3.1.5-3.9.4-.5 1.1-1.2 2.6-1.7 1.6-.5 3.3-.6 5-.3l-1-2.9c-.9-.1-2.8-.3-5.2.5-4.4 1.4-6.6 5.1-5.2 9.2 1.4 4.2 5.7 5.6 9.6 4.3 2-.7 3.8-2 4.7-3.5l-1.8-5.4z" opacity=".2"/><path d="m179.1 193.9 2.3 14.6 3-1.7-.5-2.9 5.1-2.8 2.3 1.9 3.1-1.7-11.9-9.3zm7.8 5.7-3.5 1.9-1-5.6z" opacity=".2"/><path d="m217.5 174.9c-2.1-1.7-4.2-1-5.7-.2-1.8.9-3 1.6-3.6 1-.1-.1-.8-.8.4-2.2 1.1-1.2 2.8-1.9 3.8-2.3l-2.2-1.9c-2.1.9-3 1.8-3.7 2.6-1.6 1.9-1.8 3.7-1.1 5.1l-1.5-1.6-9.3 8.5 1.1 1.1c-.5-.2-1-.2-1.4-.2-1.3.1-2.2.8-3.2 1.5l-4 2.9 8.4 11.1 2.6-1.9-3.4-4.5.4-.3c.7-.5 1.3-.9 3 0 .5.3 3.1 1.8 3.7 2.1l2.9-2.1-1-.5c-.8-.4-2-1.2-2.8-1.6-.7-.4-2-1.1-3.1-1 .3-.6 1.1-2.2-.3-4.1-.3-.4-.6-.7-1-.9l3.2-2.9 7.8 8.2 2.4-2.2-7.8-8.2 3.4-3.1c.2.3.4.6.7.8 2.3 1.9 4.6.8 6.3-.2 1.6-.9 2.3-1.2 3-.7 1 .8 0 2-.3 2.3-1.2 1.4-3 1.9-4.3 2.3l2.3 1.9c.4-.1 2.6-.9 4-2.6 1.4-1.1 2.8-4.1.3-6.2zm-22.4 15.3c-.2.4-.3.5-1 1l-1.1.8-1.9-2.5 1.3-1c.3-.2 1.5-1.1 2.4.2.4.5.6 1 .3 1.5z" opacity=".2"/><path d="m55.8 93.7c-.1 0 0 0 0 0z" opacity=".2"/><path d="m77.4 152c-.1-.1-.2-.2-.2-.3 0 0 .1.1.2.3-.5-.7-.9-1.3-1.3-1.9h-.1c-1.8-2.6-3.4-5.4-4.8-8.2 0 2.2-.3 4.3-.9 5.8l-.1.3-.1.1c-.9 2.1-2.6 3.4-4.7 3.6-.3.1-.7.1-1.1.1-.2 0-.4 0-.6 0-.3 0-.7 0-1 0h-.1c-.1 0-.1 0-.2 0-1-.1-1.9-.3-2.6-.7-.3-.1-.6-.3-.9-.6-.1 0-.1-.1-.2-.1l-.1-.1c-.8-.7-1.9-1.9-2.4-3.9v-.1c-.8-3.5-1-9-.9-10 0-.3-.1-1.9-.2-2.8-.2-2-.3-3.2-.3-3.9s0-3.7 0-4.7c-.5.1-.9.2-1.3.3-.1 0-.3.1-.5.2-.1.1-.2.1-.3.1h-.1c-.5.2-.8.4-1.2.6-.2.1-.4.3-.7.4-.4.2-.7.4-1.1.5-.1 0-.1 0-.2.1h-.1c-.3.1-.5.2-.9.3-.2.1-.5.2-.9.3-.5.1-1 .2-1.5.3-.8.1-1.6.1-2.4-.1-1.6-.3-2.8-1.1-3.6-1.7-.1.6-.3 1.1-.5 1.6-.1.1-.1.3-.2.4-.3.6-.7 1.2-1.2 1.8-.2.2-.4.5-.7.7s-.5.4-.7.6c0 0 0 0-.1 0-.4.2-.7.4-1.1.6-.2.1-.3.1-.4.1-.2 0-.3.1-.5.1-.4.1-.9.1-1.4 0 0 0 0 0-.1 0-.3 0-.7-.1-1-.2-.1 0-.1 0-.2-.1-.4-.2-.9-.4-1.3-.7-.1 0-.1-.1-.2-.1l-.1-.1c-.1 0-.1-.1-.2-.1 0 0-.1-.1-.1-.1-.7-.6-1.4-1.2-1.9-1.9 3.4 19.7 11.9 37.7 24.2 52.3l26.7-26.7c-.4-.7-1-1.6-1.6-2.4z" opacity=".2"/><path d="m44.1 93.7c0-.1.1-.1 0 0 .1-.1.1-.1 0 0 0-.1 0 0 0 0z" opacity=".2"/><path d="m30.9 86.6c.3.1.5.3.7.5 2.1 1.6 2.9 4.1 2.1 6.5-.2.6-.5 1.2-.8 1.8-.1.2-.3.4-.4.5 0 0 0 .1-.1.1-.2.3-.5.6-.7.8.4 0 .6.1.9.1.1 0 .3 0 .4.1h.2c.1 0 .3 0 .4.1.1 0 .2 0 .3.1.5.1 1 .2 1.4.4h.1c.3.1.7.3 1 .4 0-.3 0-.6 0-.9 0-.2 0-.4 0-.5 0-.2 0-.4.1-.5 0-.2.1-.5.2-.7.2-.8.6-1.5 1.1-2.1l.1-.1s.1-.1.1-.1c.3-.3.6-.5 1-.7 1-.6 2-.7 2.3-.8.2-.1.4-.1.6-.2h.2c.7-.2 1.4-.2 2.2-.2 1.5 0 2.9.4 4.2 1.1 0 0 .1.1.2.1.9-.1 2.9-.4 4.6-.7v-.3c-.1-.4-.1-.8-.1-1v-.1-.1c-.2-1.6.2-4.5 1.4-6.9.1-.2.2-.3.2-.4 0-.1.1-.1.1-.2.1-.2.3-.4.4-.5.4-.4.8-.8 1.3-1.1.3-.2.6-.3 1-.5.9-.4 1.7-.5 2-.5h.5c.5 0 1.3.1 1.9.2.4.1.8.1 1.2.2h.1.2.1.1c.5.1 1 .2 1.4.3h.1c.2 0 .3.1.4.1.9.3 1.8.7 2.6 1.2 1-2.1 2.7-5.2 3.4-6.2.9-1.3 1.7-2.6 1.2-3.1-.5-.4-1.2-.2-1.8.2-.5.4-1.6 1.8-3.2 2s-2.9-2.9-3.9-5c-1.4-2.8-3.2-1.3-4.6-2.2-1.8-1.1-1.4-4.1-1.3-5.7s-1-1.6-2.7-3.1c-3.5-3.5-3.1-5.2-2.7-9s4.1-8.7 5.3-10.3c1.3-1.5 1.9-2.3.8-2.7-1.2-.5-1.6 0-4.6 2.6-2.8 2.5-7.1 7.9-9.1 10.6-.1.1-.2.2-.2.3-.1.1-.1.2-.2.3 0 0-.1.1-.1.1v.1c-2.1 2.9-4.7 7.4-5.9 9.8-4.1 8.6-7 16.6-8.9 24.8.4.2.8.3 1.1.5-.3.3-.1.4.1.5z" opacity=".2"/><path d="m59.9 82.5c.1 0 .1 0 0 0z" opacity=".2"/><path d="m235.9 145.3c-.3-.1-.5-.2-.7-.4-1.2-.5-1.8-1.6-1.8-2.9 0-.8.4-1.5.6-1.8.1-.3.3-.7.7-1.6.2-.5.5-1.1.7-1.7.1-.4.3-.7.4-1.1.3-.7.3-1 .3-1.2-.2-.4-.4-.8-.4-1.3-.4.1-.9.2-1.5.3-1.2.2-2.3 0-3.4-.3-.1 0-.1 0-.2-.1-.6-.2-1.2-.5-1.8-.9-.1-.1-.3-.2-.4-.3s-.2-.2-.3-.2l-.1-.1v1 2.4.5c0 1.7 0 2.7-.1 3.3v.1c0 .2 0 .3-.1.5v.1.1.1c-.3 1.3-1.1 2.4-2.1 3.3-1.3 1.1-2.9 1.6-4.9 1.7-.1 0-.2 0-.3 0-2.5 0-4.5-1-6.1-3-2.1-.1-6.5-.2-9-.3-.5 0-.9 0-1.2 0-1.8 0-3.5.4-3.9.6 0 0 0 0-.1.1-.1 0-.1.1-.2.2-.3.3-.8.6-1.4.9-.2.1-.5.3-.9.4h-.1c-1.1 2-2.3 3.9-3.5 5.6l.3.3 29.3 25c6.2-8.6 11.1-18.2 14.6-28.4-.1 0-.3-.1-.3-.1-.9-.3-1.6-.6-2.1-.8z" opacity=".2"/><path d="m205.6 25.5-.6.7-21.6 24.5-.8.9c8.1 7.4 14.6 16.7 18.8 27.3h.3 1.5.1 2.3 2.5.4.1c1 0 1.7-.1 2.4-.1h1.1c2.3 0 3.6.2 5.2.6h.1c.1 0 .2.1.3.1s.1 0 .2.1c1 .4 1.9 1 2.6 1.7.3.3.6.7.8 1.1.3.5.5 1 .6 1.6.2.9.1 1.9-.1 2.8-.1.3-.2.6-.3 1 1.1.1 1.8.2 2.4.3h.1.1c1.3.4 2.5 1.1 3.4 1.9.2.1.3.3.4.4.2.2.3.3.5.5l.1.1.1.1.1.1.1.1c.2.2.3.5.4.7.1.3.3.5.3.8.3.9.3 1.8.1 2.9v.2c-.2.8-.5 1.7-.9 2.4.8-.2 1.7-.4 2.8-.4h.2c-.3-.5-.4-1.1-.6-1.6v-.1-.1-.1c-.3-1.3-.2-2.8-.2-4 0-.7 0-1.4 0-1.8-.3-1.8.1-5.7.3-6.9.3-1.2 1.2-3.2 4.8-3.8.7-.1 1.4-.2 2.1-.2h.8c.5 0 1 .1 1.6.2-6.2-21.1-18.5-40-34.9-54z" opacity=".2"/><path d="m183.2 163.8c0 .1 0 .1 0 0-1.1 1-2.1 1.9-3.2 2.7-.5.4-1 .8-1.5 1.2-1 .8-2.1 1.5-3.2 2.3l4.3 7.3c.8 1.4 1.1 2.5 1.2 3.5 0 1.6-.8 2.7-2.1 3.5-.7.4-1.5.7-2.2.7-1.5 0-3-.9-4.4-3.2l-4.3-7.4c-.6.3-1.2.6-1.8.9-.1 0-.1.1-.2.1s-.1.1-.2.1c-.9.4-1.9.8-2.9 1.2-.1 0-.1 0-.2.1-.1 0-.1.1-.2.1-.8.3-1.7.6-2.5.9l-2.4 6.4-1.2-.9-4.2-3.3c-1.4.3-6.8 1-6.8 1l10.9 8.4 2.4 8.5 2.8-.8 2.9-.9v-.1l-2.4-8.4 2.7-7.4 3.5 5.9c1.9 3.3 4.6 4.4 7.2 4.3 2.3 0 4.5-.9 6.2-1.9 2.8-1.6 5.7-4.7 5.7-8.5 0-1.4-.4-2.9-1.4-4.5l-1.5-2.6 8.2 8 2.1-1.7 2.4-2.1-8-7.7 15.4.2 1.8-2.2 1.3-1.6-13.8-12.9c-.1 0-.1 0-.1 0-.5.8-1.1 1.5-1.7 2.2-.6.8-1.3 1.6-2 2.4l7.1 6.4zm-26.1 20.5.6-1.7zm1 13.6-.1-.3z" opacity=".2"/><path d="m133.8 181.5-.7 10.5-8.5-11.2-.6-.1c-1.3-.2-2.5-.4-3.8-.6s0 0-.1 0h-.1c-.1 0-.1 0-.2 0-4.7-.9-9.2-2.4-13.4-4.2 0 0-1.1-.5-1.1-.5-.1 0-.1-.1-.2-.1h-.1c-1-.4-1.9-.9-2.8-1.4l-.2.3-2.3 3.9-1 1.7c-3.7-1.8-6.3-3.5-7.4-4.5l-.2-.1.3-.5.3-.5 2.9-4.8c-1.1-.7-4.8-3.3-4.8-3.3-.1.1-.1.3-.2.4 0-.1.1-.1.1-.2l-.1-.1-.1.2v.1s0-.1-.1-.1c-.2-.4-.4-.8-.7-1.3-.6-1-1.5-2.1-2.7-3.2-1.6-1.4-3.2-2.1-4.6-2.3-.3 0-.6 0-.8 0-1.4.1-2.7.8-3.6 1.8-1.1 1.2-1.4 2.6-1.4 4 .1 1.5.7 3.1 1.4 4.5.5 1 .9 1.9.9 2.7 0 .4-.1.8-.3 1.1-.1.1-.3.4-.8.4-.4 0-1.1-.2-1.9-.9-1.9-1.7-2.7-4.4-3.1-5.6v-.1l-3.2 3.6c1.3 3.2 3.5 5.4 3.9 5.7 1.8 1.7 4.1 2.6 5.9 2.5 1.4-.1 2.7-.7 3.8-1.9 1-1.1 1.3-2.3 1.3-3.6-.1-1.6-.8-3.5-1.7-5.7-.4-1-.6-1.6-.7-2.1 0-.4.1-.6.3-.9.2-.2.5-.4.9-.4s1 .2 1.6.7c.8.7 1.3 1.5 1.7 2.3.6 1.2 1 2.5 1.2 3.3v.1.6l-6.9 11 3 2.2 1.8 1.3 4-6.7.3.2c1.4 1 3.7 2.6 7 4.3l.2.1-.1.1-3.9 6.6 2.4 1.2 2.9 1.4 7.3-12.3-4.2 13.7s5 2 7.6 2.7c2 .6 4.8 1.3 5.9 1.6l.5.2v-.1l1.2-3.7-2.7-.8c-2.6-.7-5.2-1.5-5.8-1.7 0-.1 0-.1.1-.2v-.1l1.2-3.7c1.5.5 6.6 2 7.8 2.3v-.1l1.1-3.6-1-.3c-2.3-.6-6.3-1.9-6.9-2.1v-.1-.1l1-3c.9.3 2.9.9 7 1.9l1.5.4-2.2 15.5 3.2.5 1.6.2 1.1.1 1.2-10.5 8.9 11.3h2.3l3.2-.1 1.3-19.5c.1-.4-5-.3-5.9-.3zm-33.2 13v-.1z" opacity=".2"/><path d="m155.2 35.3h.1c7.4 1.8 14 5.1 18.7 7.9 4.8 2.9 7.7 5.3 7.7 5.3l.1.1.1-.1c.1.1.1.1.1.1l.1.1.1-.1s14.6-17.8 20.1-24.4l.1-.1-.1-.1c-17-13.9-37.5-19.2-37.5-19.2h-.1v.1c-.1 0-.2 0-.2 0h-.1v.1s-6.3 20.4-9.1 30.3zm12.2-26.6c1.3.5 5.7 2.1 10.9 4.4 6.2 2.8 12.3 7 18.4 11.4-1.7 2.1-5.8 7.1-9.5 11.6-3.3 3.9-6.2 7.5-7 8.3-1.9-1.5-7.1-5.3-20.7-10.5z" opacity=".2"/><path d="m182.7 39h.2s.1.1.1.1h.2c1.4-1.5 1.4-1.5 1.4-1.5v-.1s0-.1-.1-.1c0 0-1-.7-2.7-1.8l.1-.2 2.9.5h.3.1v-.1l-.4-4.2c.7.6 1.3 1.1 2 1.8h.1.1s.1.1.1.1h.1.1c2.6-3.5 4.9-6 4.9-6s0-.1 0-.2c0 0-2.8-3.2-9.8-7.2.2-.3.3-.6.5-.9 3 1.8 6.2 4.1 9.5 6.8h.2s0 0 .1-.1c0 0 .1.1.1.1h.2c1-1.1 1.1-1.2 1.2-1.4v-.1s-4.1-3.5-10.1-7.1c.1-.2.2-.4.3-.5 0-.1 0-.1 0-.2-1.8-1.1-4.8-2.4-4.8-2.4-.1 0-.1 0-.2.1-.1 0-.2-.1-.2-.1-.1 0-.1 0-.2 0v.1s0 .1-.1.2c-3.9-1.8-6.6-2.9-11-4.4h-.1c-.1 0-.1 0-.2-.1h-.1s-.1 0-.1.1l-.5 1.6c0 .1 0 .1.1.2 0 0 4.6 1.4 10.9 4.4-.2.3-.4.7-.6 1.1-2.7-1.3-5.8-2.6-9.4-3.9h-.1c-.1 0-.1 0-.2-.1h-.1s-.1 0-.1.1l-2.7 8v.1s0 .1.1.1c0 0 3.7.9 8.6 3-.3.5-.5.9-.7 1.2-3.2-1.3-5.6-2.1-7.9-2.7h-.1c-.1 0-.1 0-.2-.1h-.1s-.1.1-.1.1l-.1 1.7c0 .1 0 .1.1.1 0 0 2.6.8 5.8 2.1 4.3 1.8 8.4 3.8 11 5.5.1.3.2.6.2.9l-3-1.7h-.1s-.1 0-.1.1l-.2-.1h-.1s-.1 0-.1.1l-.6 1c-4-2.3-9.2-5-14.4-6.6h-.1c-.1 0-.1 0-.2-.1-.1 0-.1 0-.2.1l-.6 1.7c0 .1 0 .1.1.2 0 0 7.1 2.7 14.3 6.8l-1.8 3.4-2.7-1.3h-.1l-.2-.1h-.1s-.1 0-.1.1l-.5 1.2c0 .1 0 .1.1.2l6.8 3.7h.1.1l.2.1h.1s.1 0 .1-.1l2.4-4.6c1.1.3 1.7.8 2.3 1.3zm-8-16.3c-2.6-1.2-4.6-1.9-5.1-2l.3-1c1.8.5 3.6 1.2 5.3 1.9-.1.4-.3.8-.5 1.1zm1.5-2.8c-2.4-1.1-4.3-1.7-5.5-2.1l.5-1.3c2 .7 3.9 1.5 5.6 2.3-.2.4-.4.7-.6 1.1zm5.4 1.5c3.6 2.2 5.6 4 6.1 4.4-.1.1-.3.4-.6.7-2.1-1.6-4.2-3-6.1-4.1.2-.3.4-.7.6-1zm-1.6 2.8c2.7 1.6 4.7 3.2 5.8 4-.2.2-.4.5-.6.8-1.9-1.4-3.8-2.7-5.8-3.8.2-.3.4-.7.6-1zm-2.3 3.8c.2-.3.4-.7.7-1.1 1.9 1.1 3.9 2.3 5.7 3.8h-1.8c-.4-.2-2-1.3-4.6-2.7z" opacity=".2"/><path d="m118.5 9.8h.1v.1h.1s8.4-1.8 12.9-6.8l.1-.1-.1-.1c-1.5-1.8-2-2.7-2-2.7l-.1-.2-.1.1v.1l-.2-.2-.1.1s-5.6 6.4-11.3 7.4h-.1l.7 2.3z" opacity=".2"/><path d="m132.3 24.6v-.1l.3.1 3.4-10.9-2.7-1.1v.1l-.3-.1-3.2 11.1.2.1z" opacity=".2"/><path d="m151.8 13.3-3.4 16.4c-.5 0-2.5 0-3.8 0-.4 0-.7 0-.9 0h-.1v.1c.1 1.2.3 2.3.3 2.3v.1h.1.2v.1h.1 1.3c.9 0 2.1 0 3.3.2.7.1 1.4.2 2 .4h.1v-.1h.2.1v-.1c.8-3 3.7-14.9 4.6-18.7.7.1 1.4.3 2 .5h.1v-.1h.2.1v-.1c.9-2.4.9-2.4.9-2.4v-.1l-.1-.1s-3.5-1.8-11.5-2.2c-.3 0-.6 0-.9 0h-.1l-.2 2.8h.1c.2.3 2.3.5 5.3 1z" opacity=".2"/><path d="m148.7 4.3s5.5.9 10.6 2.6h.1v-.1c.1 0 .1 0 .2.1h.1l.1-.1c1.2-2.5 1.3-2.9 1.3-2.9v-.1h-.1s-6.1-1.8-12.2-2.2h-.1c-.1 0-.1 0-.2 0h-.1z" opacity=".2"/><path d="m77.7 23.3.1.1.1-.1s.7-.5 1.8-1.2c.2-.1.4-.3.6-.4 1.7-1.1 4.2-2.8 6.8-4.3l1 1.2.1-.1.1.1.1-.1 3.1-2.1-.8-1.3c1.1-.6 2-1 3-1.5 1.3-.7 3-1.4 4.6-2l.8 1.5.2-.1.1.1 3.4-1.9-.4-1.2c4.5-1.5 9.2-2.8 14.1-3.7h.1v-.1c.1-1 .2-2.6.2-2.6v-.2h-.2s0 0-.1 0v-.1h-.2s-6.1 1-14.8 3.9l-.7-1.9-.1.1s0 0-.1 0v-.1l-.1.1s-2.6 1.1-4.2 1.9l-.1.1.8 1.7c-1.1.5-2.5 1.1-3.7 1.6-1.6.7-2.7 1.2-3.9 1.9l-1.1-1.7-.1.1s0 0-.1 0l-.1-.1-.1.1s-3.1 1.9-3.9 2.6l-.1.1 1 1.4c-3.1 1.8-5.4 3.2-6.9 4.2-.2.1-.4.3-.6.4-1.3.9-1.9 1.3-1.9 1.3h-.2z" opacity=".2"/><path d="m167 30.2-.1.2-.2-.2-2.8 2.1.1.1 4.5 5.2.1-.1.2.2 2.4-1.9z" opacity=".2"/><path d="m131.5 9.7c-.6-3-.6-3-.6-3v-.2l-.2.1s0 0-.1.1v-.2l-.2.1s-5.2 4.3-11.2 5.7h-.1l.9 2.6h.1.1v.1h.1s.9-.1 2.5-.6l3.2 17.9h.3v.1l3.6-.7-2.9-19c1.3-.8 2.8-1.7 4.5-3z" opacity=".2"/><path d="m132.6 10.3 3.9.1v21.6h.3l3.4.1.5-21.6 4.7.2.5-2.4h-.2-.1-.2l-4.7-.1.2-3.6c.8 1 2.3 3.2 2.3 3.2l.1.1.1-.1s0 0 .1-.1l.1.1.1-.1s.4-.4 1.9-1.7l.1-.1-.1-.1c-.6-.6-2.2-3.6-2.2-3.6l-.1-.1-.2.2-.1-.1-2.1 2.1.2-3.8h-.3l-4.1-.1-.3 7.7-4.2-.1-.1 2.3z" opacity=".2"/><path d="m144.7 19.5c-.2-2.3-.2-5.3-.2-5.4v-.1l-2.6-.2h-.3v.1s.5 8.4.5 9c.1.7 1 2.1 3 3.3l.1.1.1-.1s.1.1.1.1l.1.1.1-.1c.9-1.3 1.4-1.9 1.4-1.9l.1-.1-.1-.1s-.9-.8-1.3-1.3c-.4-.7-.8-1.2-1-3.4z" opacity=".2"/><path d="m90 33.5c-.2.2-.4.3-.6.5-.5.4-1.1.8-1.5 1.1l-.2.1.2.1c.6.5 1.2 1.1 1.5 1.4.2.2.3.3.3.3l.1.1.1-.1.1.1.1-.1s.4-.4.9-1c0 0 .1-.1.1-.1.2-.2.3-.4.5-.6.4-.5.9-1 1.4-1.6l.7.9.1-.1.1.1.1-.1s2-1.3 5.5-3 8.5-3.9 14.3-5.8h.1v-.1c-.3-1.1-.6-1.7-.6-1.7v-.1h-.1s0 0-.1 0v-.1h-.1s-3.7.9-8.5 3c.2-.6.5-1.7.8-3l2.2.4h.3l.5-3.3h-.3l-2-.2c.1-.3.1-.6.1-.9.1-1 .3-2.7.5-4.3 1.3-.5 2.5-.9 3.1-1.2-.2.9-.5 2.2-.5 3.4s.3 2.3 1.4 3c2.2 1.3 4.4 1.7 6.6 2h.1.1.1v-.1c.3-1.9.8-2.5.8-2.5l.1-.2h-.2s-3-.6-4.2-1.3c-.6-.4-1.1-.8-1.1-1.9 0-.8.2-1.9.8-3.6v-.1-.1c-1.3-1.6-1.7-2-1.7-2l-.1-.1-.2.1-.1-.1-4.9 1.9c.1-.6.1-1 .1-1v-.1h-.3l-2.9-.1v.1s-.1 1.1-.3 2.4l-6.4 2.4 1.9 1.9h.1.1l.1.1h.1s1.7-.7 3.8-1.5c-.2 1.6-.4 3-.5 3.3 0 .1 0 .1-.1.3l-2.2-.2-.3 2.8 1.8.3c-.4 1.4-.8 2.9-.9 3l-.1.1h.1c1 .3 1.9.6 2.4.7-2.7 1.2-5.8 2.7-9 4.5 1.2-1.5 2.3-3.1 2.6-4.2l.1-.4-.3.3.1-.4-.3.3c-.6.6-1 .8-1.2 1l.1-.2c.6-.5 1.1-.9 1.3-1.1v-.1-.1c-.6-1.2-.6-1.2-.6-1.2l-.1-.1-.1.1-.1-.1-.1.1s-.6.4-1.3 1l-.6-.9-.1.1-.1-.1-2.7 1.8.8 1.1c-.7.5-1.4 1-1.8 1.2l-.1.1.2-2.6c1.2-.8 2.6-1.7 4-2.5l5.5 1.2.2.1.4-2.8h-.2l-3.5-.2c.4-.2.8-.5 1.3-.7l.1-.1v-.1c-.8-1.9-1.1-2.5-1.1-2.5l-.1-.1-.1.1s0 0-.1 0l-.1-.1-.1.1s-1.9 1.2-4.4 2.7l-.7-.8 3.1-1.9-.8-2.1-.2.1-.1-.1-3.6 2.2-.6-.8v.1l-.1-.1-4.5 2.6.8 1-2.7 1.6 1.6 1.7.1-.1.1.1 2.4-1.5.7.9c-1 .6-1.9 1.2-2.6 1.7-.2.1-.4.3-.6.4-.5.4-1 .7-1.3 1l-.1.1 1.9 2.2.1-.1.1.1.1-.1s.5-.4 1.3-1c.2-.1.4-.3.6-.4s.4-.3.6-.4c-.1.3-.2.6-.3.9s-.2.5-.3.8c-.3.8-.6 1.4-.8 1.6l-.2.2h.2.3c.9.1 1.8.2 2.4.2.5 0 .8.1.8.1h.1v-.1-.1l.2-2.8 1.1 1.2.1-.1.1.1.1-.1s.7-.4 1.5-1l.5.7c-.4.6-1.8 2-3.1 3.2z" opacity=".2"/><path d="m121.8 26.4v-.1c-.5-1.5-.5-2-.5-2h-.1v-.1s-.1 0-.2.1v-.1s-17.5 5.6-31.8 14.5c-.1.1-.3.2-.4.3h-.4l.1.1s.7.9 1.2 1.6l.1.1.1-.1.1.1.1-.1c.3-.2.6-.4.9-.6 1.6-1 4.2-2.6 7.9-4.5l-.6 1.8c-1.8 1-3.7 2-5.6 3.2l-.2.1 2.7 2 .1-.1.2.1h.1s13.5-9.2 16.6-11.2c.3-.1.6-.2 1-.2h.2c.1 0 .3.1.4.1 1.1.5 3.7 1.9 3.7 1.9l.1.1v-.1c.1 0 .1.1.1.1l.1.1 1.8-3.3-.1-.1s-2.1-1.1-3.8-1.8c3.4-1.2 5.8-1.9 5.8-1.9zm-10.5 5c-1.4.6-4.7 1.9-8.7 3.9.2-.6.5-1.3.9-1.9.7-.3 1.3-.6 2-1 2.1-1 4.2-1.9 6.2-2.6z" opacity=".2"/><path d="m144.4 146.2c.6.5 1.4 1.2 2.9 1.8 1.9.8 2.8.8 3.4.8h.2.2v.1c.2.2.7.9 2.6 1.5 1.9.5 3.7.3 4.2.1s.9-.2 1.8 0c.6.2 1.1.5 2.5.7.4 0 1 .1 1.7.1 1.2-.1 1.9-.1 2.7 0 .6.1 1.3.4 1.4.6s.6 1 .6 1.9c.1.9 0 1.2 0 1.7s.1.8.8 1.3 1.3.9 1.4 1.1c.2.2.4.7.9 1.1.5.5 1.4 1.3 1.5 1.5.2.2.5.8.6 1s.4 1.2.5 1.3c.1.2.3.6.6.9.4.2.8.5 1.1-.1.1-.2.2-.5.3-.8.1-.5.1-1 .1-1.4 0-.5-.4-2.6-.6-3.1-.3-1-.7-1.8-.9-2.2-.1-.2-.3-1-.5-1.4-.7-1.3-1.7-2.8-1.9-3.1s-.7-1.5-.7-1.5.1-.2-.1-.4c-.1-.2-.4-.5-.6-.8-.1-.2-.3-.5-.5-.8-.1-.2-.4-.7-.5-.9-.1-.3-.3-.9-.6-1.5-.3-.5-.9-1.5-1.2-1.9-.1-.2-.5-.8-.7-1.2-.5-.7-.8-1.2-.9-1.5-.3-.8-.8-1.3-1-1.7-.2-.3-1.8-2.6-2.1-3.4-.4-.8-.9-1.8-1.7-2.9-.7-1.2-1.7-2.7-3-4.7s-2.4-4-3.3-5.7-1-1.2-2-4.3c-.2-.5-.1-.5-.6-1.7-.5-1.1-1.2-3.2-1.3-3.4-.1-.3-.3-1.4-.4-2-.1-.7-.6-2.6-.9-3.1-.1-.3-.2-.2-.1-.7 0-.6 0-1.3-.1-2.1-.1-.7-.2-1.1-.1-1.6.1-.4.2-.7.2-1.4s0-1.4.1-1.9c.1-.4.4-2.6.4-3.7 0-.5-.1-.8-.2-1.2-.1-.9-.1-2-.1-2.9s.2-2.3.1-4.4c-.1-1.7-.4-2.2-.5-2.6-.1-.8-.3-1.2-.5-1.6s-.5-.8-1.1-1.2c-.3-.2-.5-.4-.9-.7-.8-.6-1.5-.9-3.9-1.5-1-.2-2.8-.7-3.3-.8-.4-.1-.9-.3-1.5-.5-.3-.1-.6-.3-.8-.5-.9-.6-1.3-1.1-1.4-1.8-.2-.7-.1-1 0-1.3s.2-.7.3-.8.3-.5.5-.8.3-.3.4-.7 0-.7-.2-.9c-.1-.1-.3-.1-.4-.1s-.1 0-.2 0-.2-.1-.3-.1c0 0-.1-.1-.2-.2s-.2-.4-.2-.5-.1-.3-.1-.3h-.1s0 0-.2 0c-.1 0-.2 0-.2 0 0-.1 0-.2 0-.3s-.1-.3-.1-.3 0 0-.1 0-.2 0-.3-.1c-.1 0-.2-.1-.3-.1v-.1s0 0 0-.2 0-.3 0-.3 0-.1 0-.2c0 0-.1-.1-.2-.2-.1 0-.1-.1-.2-.1s-.7 0-.8 0-.4 0-.4 0-.1 0-.2 0-.2 0-.2 0 0 0-.1 0c0 0-.1 0-.1-.1 0 0-.1-.1-.1-.1s0-.1 0-.1 0-.2 0-.2 0 0 0 .1-.1.1-.1.1c-.1 0-.2 0-.2 0s0 0 0 0-.1-.1-.1-.2-.1-.1-.1-.2c0 0-.2 0-.5 0-.1 0-.3-.1-.3-.1s0 0 0-.1-.1-.1-.2-.2-.9-.7-2-.5-1.9 1.2-1.9 1.2c-1.1-.2-1.1.1-1.5.3-.3-.1-.5.1-.5.1s-.4-.3-1.1-1-1.5-1.1-2.3-1.3c-.8-.3-1.6.1-1.7.2-.4.2-.8.6-1.1 1.2-.2.4-.2 1.6-.1 1.9.1.4.5.9.5.9s-.2.6-.3.9 0 .8.1.8c0 0 .2.8.9 1.3.6.4.9.4 1.3.3s.8-.4 1.1-.6 1.1-.5 1.3-.6.5-.2.5-.2 0 .1 0 .2c0 .3.3.7.5.8s.6.2.6.2.1.6.2.9c.4 1.1.7 1.3 1.3 1.9.4.4 1.6.9 2.1 1s.8.1.9.2c.1 0 .2.1.3.1s.1 0 .4.3c.3.2.3.3.4.4s.1 0 .1 0-.1-.1-.1-.2-.1-.2-.2-.2c0 0-.2-.2-.2-.2s.1 0 .1.1c0 0 .4.4.6.5s.4.2.6.3 0-.1-.1-.1c0 0-.3-.2-.3-.2-.1-.1-.2-.3-.2-.3s.1 0 .2.1c0 .1.3.2.5.3 0 .1.1.1.2.1s.1 0 0 0-.1-.1-.3-.3c.1.1.2.1.2.1s.4.4.6.5.9.8.9.8-.2-.1-.4-.1-.7-.1-1.6-.3-1.9-.2-1.9-.2 0 0-.6-.3-1.9-.6-2.8-.9c-1-.3-3.1-.8-4.2-1.1-.3-.1-.6-.2-.7-.3-.4-.1-.7-.3-.8-.4-.3-.2-.8-.3-1.1-.4-.4-.1-1.5-.5-1.5-.5s-1.5-1.7-2-2.3-1.6-1.8-2.3-2.7c-.4-.6-1.2-1.5-1.7-2.2-.1-.2-.3-.4-.4-.6-.8-1-2.2-2.5-2.7-3.3s-1-1.5-1-1.5c-.1-.3-.2-.4-.4-.4h-.1s0 0-.1 0-.1 0-.1.1c-.1 0-.1.1-.2.2-.1 0-.2-.1-.2-.2-.1-.3-.4-1.2-.5-1.8-.1-.4-.1-.7-.1-.7 0-.1-.1-.3-.3-.4s-.4-.1-.5-.1-.1-.1-.1-.4-.1-2.1-.3-2.7c-.2-.5-.6-1.3-1.3-2s-1.1-1.3-1.3-1.6-.4-.5-.9-.5-1.1 0-1.1 0c-.4 0-.5.1-.5.5v2.4c0 .4.1 1.3.3 1.7.1.5.6 1.7.7 2s.3.5.6.9c.2.4.9 1.5 1.2 2.1s.3.6.7 1.3c.3.7.6.9.7 1.1s0 .4.3.7c.2.3.6.9.7 1-.1.3-.2.5-.3.7-.1.1-.2.3-.2.5-.2.5.1.3-.4.9-.1.2-.3.5-.5.9-.4-.2-.7-.4-1-.6-.4-.2-.7-.5-.8-.5-.1-.1-.4-.1-.6 0-.2 0-.3.3-.4.4s-.2.2-.3.1c-.2-.1-.6-.2-.8-.2s-.8-.4-1.5-.9-1.1-.9-1.6-1.2c-2.1-1.5-4.6-3.7-6.9-6.4-4-4.8-.7-12 2-14 .1-.1.3-.2.4-.3l-6.5-8.1-.1-.2-12.7-16-.2-.3c-2.1 1.5-7.2 5.9-8.8 8.6-1 1.6-1.9 3.1-2.6 5.8-1.4 5.5-.7 9-.7 9 1.2 8.7 6.8 13.3 13 17.1 1.8 1.1 3.8 2.3 5.8 3.4 1 .6 1.8 1.2 2.2 1.4 1.1.7 3.8 2.5 5.4 3.2s3.3 1.4 4.2 1.7c.9.4 2.2 1.1 3.3 1.4s2 .7 2.3.9c.1 0 .2.1.3.1 0 0-.1.1-.2.2s0 .3.1.5c.2.2.6.9 1.3 1.3.7.5 1.2.5 1.5.5.2 0 .4 0 .6.1s.5.2.9.3c-.1.6-.2.9-.3 1.3s-.1.6-.1 1c0 .3-.1.6 0 .9.2.3.2 1.3.1 1.9s-1.8 4.6-2.2 7.8.2 6.4.4 7.3c.2 1 .9 3.6 1.2 4.2s.7 1.4.9 1.8c.1.2.1.4.2.5-.1-.3-.3 1-.3 2.8 0 1.1 0 2.3.4 4.2.1.5.6 1.8.8 2.7.2.7 1 2.5 1.5 3.3.4.7 1.4 2.1 1.9 2.8s.8 1.1 1 1.3c.1.2.2.4.3.8.1.5.2 1.4.6 2.6 0 .4.2 1 .5 1.6.3.8 1.1 2.8 2.6 4.9s2.3 2.7 3.1 3.4 3.1 2.5 4.5 3.2 4.7 2.2 5.8 2.4c1.1.3 1.9.3 2.2.4s.2.3.7.9 1.8 1.9 3.4 2.9c1.7.9 4.1 2 7.3 2.4s5.9-.1 6.4-.2c-.2-.1-.1 0 .1.1zm-23.9-75.9c0-.2-.1-.6.2-.8s.9-.1 1.2 0 1 .4 1.3.8c.2.2.3.3.3.4-.1-.1-.6-.4-1.2-.5s-.8-.2-1.4.2c-.1.1-.2.1-.3.2 0-.1-.1-.2-.1-.3zm2.6 2.4c-.2.1-.6.3-1 .5-.3.1-.4.3-.6.3s-.5-.2-.6-.3-.2-.5.1-1c.2-.5.8-.4 1-.4s.8.2 1.1.2.8.3.8.3-.5.2-.8.4zm-34.7-4.2c-2.1-1.1-11.5-6.3-15.8-11.1-4.1-4.7-6.3-9-7.3-14.3-1-5.4 4.3-9.7 4.3-9.7s0 0-1.3 2.7c-1.3 3.3-2.6 7.6 1.2 14.7s9.8 11.2 12 12.6 7.9 5.6 6.9 5.1zm14 5c-.1.3-.2.6-.3.9-.1-.1-.3-.1-.4-.2-.4-.2-.5-.5-.8-.8-.2-.3-.5-.3-1.1-.7-.7-.4-1.4-.2-1.6-.1s-.4.2-.5 0-.4-.2-.6-.3-1.1-.7-2.1-1.3c-1.6-1.1-3.1-2.6-4.6-4-5-4.8-9.2-8.4-10.8-13.5-1.6-5 .8-11.5 1.1-12.6s1.3-.8 1.1-.6c-1.4 2.3-1.9 5.9-1.8 9.4.2 3.5 1.7 6.9 4.4 10s5.3 5.8 8.8 7.6c1.5.8 4 1.9 4.6 2.2.5.3 1.2.6 1.6.7.1.3.3.5.5.7s.4.5.5.8.2.6.7.7c.4.1 1.1.2 1.7.2-.2.4-.4.7-.4.9zm22.4 9.3c-.3-.1-.8-.2-1.1-.2-.5-.6-.7-.7-1.3-1-.4-.2-.5-.2-.6-.5.1 0 2.3.6 2.6.7s3 .9 3.5 1.1 1 .4 1.4.5c.3.1.9.4 1.8.7.4.2 1.3.5 1.5.5.2.1.7.2.7.2s0 0-.1 0c-.2 0-1-.2-1.4-.2-.8-.1-1.4-.3-2.3-.5-.5-.1-4.3-1.2-4.7-1.3zm13.7 11.2c-.7 0-1.4.3-1.7.4-.1-.1-.2-.3-.4-.3s-.4-.1-.5-.2-.3-.1-.4-.2-.2-.2-.6-.3-.6-.3-.7-.4c-.2-.1-.3-.5-.8-.9-.4-.4-1.3-1.3-2.2-2-.8-.7-3.6-2.6-4.1-2.9 0 0-.6-.4-.7-.5s1 .1 1.7.3c1 .3 2.5.7 3.1 1s1.2.5 1.7.6.8.2 1.5.4c.3.6.6.5.9.6.2.5.3.3.8.6s1.3 1.2 2.3 2.2c.6 1 .3 1.3.1 1.6z" opacity=".2"/></g><path d="m247.2 134.2c-.5-.8-1.3-2.1-3.5-2.6-2.1-.5-3.8-.2-4.6 0-.1 0-.2.1-.3.1s-.2.1-.2.2c-.2.2-.4.6-.4.9 0 .2 0 .5.1.7.1.1.1.2.1.3.1.1.1.3.1.4.1.6 0 1.4-.4 2.5-.1.4-.3.7-.5 1.1-.6 1.4-1.3 2.9-1.4 3.2-.1.2-.4.7-.4 1 0 .2.1.4.4.5h.1c.1.1.3.2.6.3.4.2.9.4 1.5.5.9.2 2.5 1 3.8-.1 1.1-.9 2.3-2.9 2.9-3.9.1-.2.2-.4.3-.5.2-.3.4-.8.7-1.2.2-.4.4-.7.5-.8 0 0 .1-.1.1-.1.3-.5.9-2 .5-2.7z" fill="#fff"/><path d="m261.2 134.6c-.1-.3-.3-.5-.5-.8-.5-.6-1.2-1.2-2.1-1.6-1.8-.8-3.2-.8-4.2-.3-.5.3-1.4 1.1-1.7 1.6v.1c0 .1-.1.2 0 .3.1.1.1.2.2.3.1.2.1.4 0 .7-.2.4-1.3 4.9-1.4 5.3-.1.3 0 1.5 0 1.9v.1c0 .1.1.2.1.3l.2.2c.2.1.5.2.9.3 1 .2 2.2 1.1 4.1-.5 2-1.6 3.1-3 3.5-3.7.4-.6 1.2-2.2 1.3-3.1 0-.1 0-.2 0-.3-.2-.1-.3-.4-.4-.8z" fill="#fff"/><path d="m195.6 86.6c0 .1.1.1.1.2.1.1.1.2.2.4 0 .1.1.1.1.2.4.6 1 1.2 2.1 1.5.1 0 .2.1.4.1 1.9.3 3.9-.1 7.7 0h.8c1 0 1.9.1 2.8.1 3.2.2 5.7.3 6.5.1s1.8-.7 2.5-1.7c.2-.3.4-.7.5-1.1.2-.6.2-1.2.1-1.7-.1-.3-.2-.6-.3-.9-.1-.2-.3-.4-.5-.6-.4-.5-1-.8-1.6-1.1h-.1c-.1 0-.2-.1-.3-.1-1.4-.5-2.7-.6-5.5-.5-.7 0-1.4 0-2.3.1-.2 0-.3 0-.4 0-2.1.1-3.7 0-5 0-1.5 0-2.5 0-3.5.1-1.8.3-1.9.1-2.8.5-.5.3-.9.3-1.2.4 0 0 0 0-.1 0-.3.1-.5.2-.8.5-.3.1.2 2.7.6 3.5 0-.1 0 0 0 0z" fill="#fff"/><path d="m226 117.7c-.1-.4-.2-.7-.4-1 0-.1-.1-.2-.1-.2-.2-.3-.3-.6-.4-.7-.3-.5-.9-1.4-1.3-1.7-.2-.1-.3-.2-.4-.3s0 0-.1 0c-.2-.1-.4-.2-.5-.3-.6-.3-1.1-.3-1.4-.3-.5 0-3 .1-5.2.4-1 .1-3.4.2-6 .3-3 .1-6.2.2-7.7.2-2.2.1-3.5.3-4.1.4-.1 0-.2.1-.3.1-.6-.3-1.7-1-3.5-.9-1 .1-1.7.1-2.4.3-.5.1-1 .3-1.3.6-.4.3-.6.9-.7 1.5-.1.5 0 1 0 1.4.2.9.2 4.1.2 6.3 0 .5 0 1.4-.1 2.4v.1c-.1 2.4-.2 5.6 0 7.8v.2c0 .2 0 .4.1.7v.3c0 .2.1.3.1.5v.1c.2.8.3 1.5.5 2.2 0 .1 0 .1.1.2v.1c0 .1.1.2.1.3v.1c0 .1.1.2.1.3.1.2.1.3.2.5 0 .1.1.1.1.2.3.7.8 1.3 1.5 1.8.9.6 2.7.4 3.8 0 .2-.1.4-.2.6-.3.5-.3.9-.6 1.3-.9.1-.1.3-.2.4-.3.7-.4 2.8-.8 5.1-.8h1.3c3.1 0 9.3.3 10.3.4.6.8 1.8 3 5 2.9 1.6 0 2.6-.5 3.3-1.1.8-.6 1.1-1.4 1.3-2v-.1c0-.1 0-.2 0-.3.1-.6.1-1.7.1-3.1 0-.1 0-.3 0-.4s0-.2 0-.4c0-.3 0-.6 0-.9v-.1c0-.1 0-.2 0-.3 0-.3 0-.5 0-.8 0-.7 0-1.5 0-2.3 0-.3 0-.6 0-.8s0-.3 0-.5 0-.3 0-.5c0-1.1.1-2.2.2-3.2 0-.1 0-.1 0-.2 0-.3 0-.5 0-.8 0-.1 0-.1 0-.2s0-.2 0-.3c0-.2 0-.4 0-.7 0-.1 0-.2 0-.2 0-.1 0-.3 0-.4.1-.7.2-1.5.4-2.3v-.1c.1-.6.2-1.3.2-1.9-.2-.5-.3-.8-.4-1zm-11.1 12.8v.3.4.2.5s-.1 0-.4 0c-1.2 0-5 .1-6.9.1-.4 0-.7 0-.9 0-1.3 0-6.2.5-6.4.6 0 0-.1-.5-.1-1 0-.2 0-.3 0-.5 0-.1.1-.2.1-.3s.1-.1.1-.1c.4-.3 1.5-.4 2.3-.5.6-.1 3.1-.1 5.3-.1h2.7c2.3.2 3.9.3 4.2.4 0-.1 0-.1 0 0zm-.1-7.7s-.1 0-.2 0c-.7 0-3.1.1-5.2.2-1.3.1-2.6.1-3.3.1-1.8.1-5.5 0-6.7.5 0 0-.1 0-.1.1-.1-.2-.3-1.1-.1-1.7.1-.3.3-.5.7-.6.2-.1.3-.1.5-.2 1.4-.4 3.9-1.1 7.2-.9.8 0 1.5.1 2.1.1 2.5.2 4.3.5 5.2.7h.1c.2.7.4 1.7-.2 1.7z" fill="#fff"/><path d="m269.1 114.7c0-.1 0-.1 0-.2s0-.2 0-.3v-.1c0-.2 0-.4 0-.6s0-.5 0-.7 0-.4 0-.6c-.1-1.5 0-2.8 0-4.5 0-.2 0-.4 0-.6 0-.8-.1-1.7-.4-2.4 0 0 0-.1-.1-.1 0-.1-.1-.2-.1-.3 0-.1-.1-.1-.1-.2s-.1-.2-.2-.3-.1-.1-.1-.1c-.1-.2-.3-.4-.5-.5-1.2-.8-3-1.8-4.4-1.9-1.4-.2-2.3.3-3.1.7-.1 0-.2.1-.3.1-.9.2-2.5-.2-3.4-.2-.4 0-1.9 0-3.8 0-2.9 0-6.6.1-8.4.1-1.2.1-2.6.1-3.9.2-.2 0-.4 0-.6 0-1.6.1-2.9.2-3.2.2-.1 0-.1-.1-.2-.1-.9-.4-2-1-3.2-1.3h-.1c-.4-.1-.9-.1-1.4-.1-2 .1-3.3.6-3.9 1.5 0 1.5-.1 5.7 0 6.3v.4c0-.1 0-.1 0-.2 0-.8 0-1.6-.4-2.3-.5-1-1.6-1.8-4.2-2.1-2.2-.2-3.4-.3-4.3-.3s-1.4 0-2.2 0c-.1 0-.3 0-.5 0h.1c.3-.1.6-.2.8-.3.1-.1.3-.2.3-.2.4-.4.6-.9.7-1.4 0-.1.1-.3.1-.4v-.1c0-.1.1-.2.1-.3.1-.3.2-.5.2-.7.2-.4.4-.5.7-.6h.3.1 1 .3.4.4c.3 0 .7 0 1.1-.1h.3c.3-.1.6-.1.9-.2h.1c.8-.3 1.6-.8 2.2-1.6.4-.7.8-1.4.9-2.2 0-.1 0-.1 0-.2.1-.6.1-1.2 0-1.7-.1-.2-.1-.3-.2-.5s-.2-.3-.3-.5c-.1-.1-.2-.2-.2-.3-.1-.1-.2-.2-.3-.3s-.2-.2-.3-.3c-.6-.5-1.4-1.1-2.5-1.4 0 0 0 0-.1 0-.7-.2-2.2-.3-3.8-.3-1.8-.1-3.7-.1-5-.1-1.4 0-4.7 0-7.8-.1-1 0-1.9 0-2.8 0-.4 0-.7 0-1.1 0-.7 0-1.3 0-1.6 0-1 0-2.2 0-3.5 0-1 0-2.1.1-3.1.1-.4 0-.7.1-1.1.1-.2 0-.4 0-.6.1h-.1c-1.6.2-3 .4-4.3 1-.2.1-.3.2-.5.3-.4.2-.7.4-1 .7-.2.1-.3.5-.4.9v.3c-.1.5 0 1.1.1 1.7 0 .3.1.6.2 1 0 .2.1.3.2.5 0 .1.1.2.1.3.5.9 1.4 1.8 3.2 2.2.1 0 .2 0 .3.1h.7c.3 0 .6-.1.9.1.2.1.3.2.5.4s0 .1.1.1c.1.2.2.4.4.7v.1c.1.1.1.3.2.5v.1c.2.4.3.8.5 1.2.2.5.4 1 .6 1.3.1.1.1.2.2.2 0 0 .1.1.1.1.1.1.3.2.5.2.1 0 .2 0 .3.1-.1 0-.2 0-.3 0s-.3 0-.4 0c-.3 0-.5 0-.7 0-.6 0-1.7-.2-3 0-.5 0-1 .1-1.5.3-1.7.5-3.6 1.6-3.9 2.3-.2.5-.4 1.2-.4 1.9 0 .5.1.9.3 1.3 0 0 .1.1.1.1.1.1.1.2.2.3v.1s.1.1.1.1 0 0 .1.1c0 0 .1.1.1.1l.2.2c.2.2.4.3.7.5.4.2.7.5 1.1.7.9.5 1.9.8 2.5.7 1.1-.2 2.5-.2 3.5-.2 1.1 0 8.1-.2 10.5-.2 1 0 2.9 0 4.9.1h.2.1c2.2 0 4.4.1 5.7.1h.1.2.2.1c.9 0 1.9-.1 2.7-.1h.2 1.7.3.1.2.2c.5.1 1.1.2 1.7.2h.3c.5 0 .9-.1 1.3-.4.1 0 .1-.1.2-.1.6-.4 1.1-.8 1.5-1.4.1-.2.2-.4.3-.6.1-.1.1-.3.2-.4v-.1s0 0 0-.1v.1.1c-.1.8-.3 1.7-.3 2.1v1.4.6.4.9.1 2.4c-.1.9-.1 4.3-.1 5.6 0 .4 0 .9.1 1.5 0 .1 0 .2.1.4.1.7.3 1.4.6 2.2.1.2.1.3.2.5 0 0 0 .1.1.1 0 .1.1.1.1.2.1.1.1.2.2.3.3.4.6.8 1 1.2l.3.3c.1.1.2.2.3.2.4.3.8.5 1.3.7h.1c.7.2 1.4.3 2.3.2.8-.1 1.2-.2 1.5-.4.2-.1.3-.2.3-.3s.1-.1.1-.2h.4c.6 0 1.8.1 3.1.2.8.1 1.7.1 2.6.2h.4c2.5.2 5 .4 6 .4h.1 2.5c1.1 0 2.4 0 3.7-.1.5 0 .9 0 1.4-.1 1.3-.1 2.4-.1 3.1-.2h.3c1.2-.1 1.8-.1 2.1-.1h.1s1.3 1.2 3 .7 3.7-1.4 4-4.8c.1-.8.1-1.6.2-2.4 0-.1 0-.1 0-.2 0-.8.1-1.6.1-2.3 0-.1 0-.2 0-.3 0-1.3.1-2.5.1-3.1.5-1.2.5-2.7.5-4.1zm-59.5-10.6c-.1 0-.1 0-.2 0 0 0 0 0-.1 0-1.6 0-3.1.1-3.7.2-1.1.1-2.1.2-3.1.2-.5 0-.9 0-1.4-.1.1 0 .3-.1.4-.2s.2-.1.3-.2c.3-.3.5-.7.7-1.1 0-.1.1-.1.1-.2.5-1 .8-2 .8-2.4 0-.5.3-.8 1.4-1 .8-.1 2.5-.2 3.4-.2h.5.1c.1.1.2.3.3.7 0 .1 0 .1.1.2.1.4.3 1 .4 1.4.1.3.2.6.4.8s.3.5.5.7c.2.3.4.5.6.8.1.1.3.3.5.4-.8-.1-1.4 0-2 0zm28.3 6.2s.1-.1.1-.1c.4-.4 1.8-.8 2.6-1.2.9-.4 1.8-.3 2.7-.4 5.8-1.2 9.1-.4 12.4.1 1.6.2 2.3.4 2.7.6 0 0 .1 0 .1.1.2.2.2.3.2.5-.1 0-2.6.1-4.2.1-1.6.1-10.8.1-13.8.3 0 0 0 0-.1 0-1.7.1-2.3.1-2.6.1-.2 0-.1-.1-.1-.1zm21.3 14.1c-.1.1-.3.2-.3.2-.1 0-1.6.4-10.5.5-4.5.1-7-.2-8.3-.4-1.3-.3-1.5-.6-1.5-.6s.1-.1.2-.1c.3-.2.9-.3 1.5-.4.5-.1 1.1-.1 1.6-.2.2 0 .7 0 1.5-.1h.3.5.5 1.9 1.1 9c1.5.1 2.2.2 2.5.4.1.1.2.2.2.3-.1.2-.2.3-.2.4zm.2-7s-.1.1-.4.2c-.2.1-.4.1-.7.2-.8.2-1.8.3-6.8-.1-5-.5-7.7-.3-10-.1-.3 0-.6 0-.9.1-1.8.1-2.9-.1-2.9-.1.1-.1.2-.2.3-.3.5-.4 1.5-.7 2.7-1 .2 0 .4-.1.6-.1.1 0 .3-.1.4-.1 1.3-.2 2.8-.4 4.2-.5h1.7c3.5.1 8.3.8 10.1 1.1.8.2 1.3.3 1.5.5.4.1.2.2.2.2z" fill="#fff"/><path d="m233.3 95.8v.2c.2.8.6 1.7 1.2 2.3.1.1.1.1.2.2 0 0 0 0 .1.1.2.2.3.3.5.4.3.2.6.4 1 .6.3.1.5.2.8.2 1 .1 2-.3 2.6-.6.1 0 .1-.1.2-.1.4-.2.6-.4.6-.4 1.2-.1 5.6-.3 10.2.1.9.1 1.8.2 2.7.3 1.1.2 1.9.8 3.5.7 1.5-.1 2.9-.6 3.4-1.2.5-.6.7-1.4.6-3.3 0-.4 0-.8 0-1.2 0-.2 0-.3 0-.5.1-1.5.3-3 .5-3.4.1-.3.2-1.3 0-2.4v-.1c-.1-.6-.3-1.3-.6-2-.2-.4-.4-.8-.7-1.2-.1-.2-.3-.3-.4-.5-.8-.8-2-1.5-2.8-1.7-.9-.2-2.3-.5-3.7.5-.7.5-2.6 1.2-6.8.6s-6-1.1-8-1.3c-.7 0-1.5 0-2.3.1-1.3.2-2.5.8-2.8 1.9-.2 1.1-.5 4.5-.3 6 .4 1.5 0 3.9.3 5.7zm8.6-3.8v-.1c0-.3 0-.6.1-.9 0-.1 0-.1 0-.1 0-.1.1-.2.1-.3.7-.6 2-1 3.6-1.2s5.3.2 6.4.4c.2 0 .3.1.4.2 0 0 .1 0 .1.1.4.3.2.9.2 1.1v1.5s0 0-.8-.1c-1-.1-5.1-.2-6.2-.1-1 .1-4-.4-4-.4.1 0 .1 0 .1-.1z" fill="#fff"/><path d="m10 96.3c.1 0 .2.1.3.1h.1c.4.1 2.6.3 7.7-.4 1.8-.2 3.1.1 5.4.3.4 0 1 .2 1.7.3s1.3.3 1.7.2c.4 0 .8-.1 1.2-.3.8-.4 1.7-1.1 2.4-2 .1-.1.2-.3.3-.4.3-.4.4-.8.6-1.2.5-1.7-.2-3-1.3-3.8-.2-.1-.3-.2-.5-.3-.1-.1-.2-.1-.3-.2-.9-.4-1.6-.7-3.2-.9-.8-.1-1.9-.1-3.4 0-.2 0-.4 0-.6 0s-.3 0-.5 0c-.1 0-.2 0-.4 0s-.4 0-.6 0-.3 0-.5 0c-.4 0-.8 0-1.3.1-.1 0-.2 0-.4 0-.8.1-2.1.1-3.4 0-.5 0-.9 0-1.4-.1-.1 0-.2 0-.4 0-.9-.1-1.7-.1-1.9-.1-.4 0-1.3-.2-2.5.6-.1.1-.2.1-.3.2-.2.1-.4.3-.5.4-.2.2-.4.4-.6.6s0 .1-.1.1c-.1.1-.1.4-.2.6v.2c-.1.6-.2 1.3-.3 1.9v.2c0 .2 0 .5.1.6.3.9 1.2 2.8 3.1 3.3z" fill="#fff"/><path d="m37.7 102.8c-.1-.2-.2-.4-.3-.6 0-.1-.1-.2-.2-.3 0 0-.1-.1-.1-.1-.1-.1-.2-.3-.3-.4-.1-.1-.3-.3-.5-.4 0 0-.1 0-.1-.1 0 0-.1-.1-.1-.1-.5-.3-1-.6-1.6-.8-.4-.1-.7-.2-1.1-.3-.1 0-.2 0-.2-.1-.2 0-.3-.1-.5-.1-.1 0-.2 0-.3-.1-.4-.1-.8-.1-1.2-.1-.6 0-1.2-.1-1.9-.1-.1 0-.3 0-.4 0-1.1 0-2.4.1-3.9.1-1.6 0-3.4 0-5.4-.1-.3 0-.5 0-.8-.1-.2 0-.5 0-.7 0-.1 0-.3 0-.4 0-.4 0-.7.1-1.1.2h-.1c-.2 0-.4.1-.7.1-.1 0-.1 0-.2 0 0 0 0 0-.1 0s-.3 0-.4 0-.2 0-.4 0c-.3 0-.6 0-.9 0s-.6 0-1 0c-.3 0-.6 0-.9 0-.1 0-.2 0-.3 0-.5 0-1 0-1.5 0h-.1c-.1 0-.3 0-.4 0-.2 0-.4 0-.5 0-.4 0-.7 0-1.1.1-.1 0-.1 0-.2 0-.7 0-1.3.1-1.8.2-.1 0-.2 0-.4.1-1.5.2-2.6.6-3.1 1.1-.7.8-.9 1.5-1 1.8v.3.1c-.6 1.6-.1 4 3.1 5 1.2.4 2.3.5 3.3.5h2c.5 0 .9.1 1.1.3.7.7.4 3.1-.9 5.3s0 .1-.1.1c-1.2 2-2.9 3.1-4.5 3.8-.1 0-.2.1-.3.1-.4.1-.7.3-1 .4-.6.2-1.1.4-1.6.7-.1 0-.1.1-.2.1-.7.4-1.4 1-1.8 1.9-.1.1-.2.3-.2.4 0 .1-.1.2-.1.4-.1.1-.1.5-.2 1-.1.7 0 1.7.3 2.7 0 .1.1.2.1.3.2.5.4 1 .8 1.6 0 0 0 .1.1.1.1.1.2.3.3.4 0 0 .1.1.1.1s.1.1.1.1c.2.2.3.3.5.5s.5.4.7.5c0 0 .1.1.1.1l.6.3c.1 0 .1 0 .2.1 1.7.5 4.4.2 6.2-.4.3-.1.6-.2.8-.4 1.3-.7 2-1.3 2.7-1.5.1 0 .1 0 .2-.1.1 0 .3-.1.4-.1h.5v1.9.1c0 1.1 0 2.4-.1 3.6v.1 3.9.9.4.2.3c0 .3.1.5.1.8v.2c.3 2 1.1 4.5 3.2 5.5.1 0 .2.1.2.1.9.3 2.2.5 3.5.3h.1c.5-.1 1-.3 1.4-.6 0 0 .1 0 .1-.1.1 0 .1-.1.2-.1.1 0 .1-.1.2-.1.2-.2.4-.5.6-.7.1-.1.1-.2.2-.3.1-.2.2-.5.3-.7s.1-.4.2-.6v-.1c.1-.2.1-.5.2-.7 0 0 .3-4.1.3-7.4v-.1c0-.1 0-.3 0-.4s0-.1 0-.2c0 0 0 0 0-.1 0 0 0-.1 0-.2s0-.2 0-.3c0-.2 0-.4 0-.7 0-.1 0-.1 0-.2 0-.2 0-.4 0-.6 0-1.4-.1-3.2-.2-5.3 0-.8-.1-1.7-.1-2.6 0-.2 0-.4 0-.6 0-.1 0-.2 0-.3 0-.7-.1-1.5-.1-2.2 0-.1 0-.2 0-.3h.1c.3.2.6.4.8.7 0 0 .1.1.1.1.4.5.8 1 1.1 1.5 1.8 3.1 2.5 4.6 4.6 6.3 0 0 0 0 .1.1s.2.2.3.2.1.1.2.1c.2.2.4.3.7.4h.1c.2.1.3.1.5.1h.7c.1 0 .2 0 .3-.1.1 0 .1 0 .2-.1.2-.1.5-.2.7-.3.2-.1.3-.2.5-.4.1-.1.3-.3.4-.4.3-.4.6-.8.8-1.2 0-.1.1-.2.1-.3.4-.8.6-1.8.6-2.8 0-.1 0-.2 0-.3 0-.9-.1-1.7-.1-2.4 0-.1 0-.1 0-.2s0-.2 0-.3c0-.2 0-.4-.1-.6-.1-1.1-.2-2.1-.4-2.9 0-.1 0-.2-.1-.3 0-.1 0-.1 0-.2-.1-.2-.1-.4-.2-.6-.2-.7-.5-1.3-.7-1.8-.2-.4-.5-.8-.8-1.1-.1-.1-.2-.2-.3-.4-.2-.2-.3-.3-.5-.5 0 0-.1 0-.1-.1-.2-.2-.4-.3-.6-.5-.3-.2-.5-.3-.8-.5h-.1c-.1-.1-.2-.1-.3-.2s-.2-.1-.3-.1c-.6-.3-1.3-.5-1.9-.7-.5-.1-1-.2-1.5-.2-.1 0-.2 0-.2 0-.3 0-.6.1-.9.1-.5.1-1.1.3-1.6.6-.4.3-.9.5-1.4.6 0 0 0 0-.1 0 0-1.2-.1-2.1-.1-2.3h.1.3.4.3.1.1.2 1 .2 1.2.3.9.6c1-.1 2-.2 2.6-.3 1-.3 2-.7 2.8-1.3 1.2-.8 2-2 2.1-3.5 0-.1 0-.1 0-.2 0-.1 0-.1 0-.2-.2-.3-.3-.6-.4-.9z" fill="#fff"/><path d="m84.5 95.9c-1.3-1.3-2.4-2-3.5-2.2-.2 0-.4-.1-.6-.1-.1 0-.2 0-.3 0-.6 0-1.1.1-1.5.2-.1 0-.3.1-.4.1h-.1c-.1 0-.2 0-.3.1-.9.2-2 .2-3.1.2-.1 0-.2 0-.2 0-.6 0-1.2 0-1.8 0-.9 0-1.8.2-2.6 0-.4-.1-.7-.2-1-.4s-.6-.5-.8-1c0-.1-.1-.2-.1-.3s-.1-.2-.1-.3c-.1-.2-.1-.3-.1-.5-.1-.3-.1-.6-.2-.9 0-.3 0-.6 0-.9s.1-.5.1-.8c0-.1 0-.2.1-.3.1-.3.2-.6.2-1 .1-.4.1-.9-.1-1.5-.4-1.6-1.6-2.4-3.6-3.1-.1 0-.2-.1-.3-.1-.4-.1-.8-.2-1.2-.3h-.1c-.1 0-.2 0-.2 0h-.1c-.4-.1-.7-.1-1.1-.2-.9-.1-1.5-.2-1.6-.2s-.8 0-1.5.3c-.2.1-.4.2-.6.3-.3.2-.5.4-.7.6-.1.1-.2.2-.2.3 0 0-.1.1-.1.1-.1.1-.1.2-.1.2-1 1.9-1.3 4.2-1.2 5.5v.1c0 .3.1.7.2 1.1.1.5.1 1.1.2 1.6s.1.9 0 1c-.1 0-.2 0-.3.1-.1 0-.2 0-.3.1 0 0 0 0-.1 0-1.9.4-7.1 1.2-7.3 1s-.4-.3-.7-.4c-1.8-1-3.6-.8-4.6-.6h-.1c-.2 0-.3.1-.4.1s-.2.1-.2.1c-.3 0-1 .1-1.6.5-.2.1-.3.2-.5.4 0 0 0 0-.1.1-.2.3-.5.6-.6 1.1 0 .1-.1.3-.1.4v.4.4c0 .7 0 1.5.1 2.4v.3 1.5c0 1.4-.4 3.9-.5 6.5v1.1.1.3c.1 1.2.2 2.4.2 2.9 0 .4 0 .9.1 1.4.1 1.7.2 4 .2 4.8.1 1 .7 3.8 1.5 4.9.6.8 1.8 1.9 3.6 2.3.5.1 1.1.1 1.6.1.3 0 .7-.1 1-.2s.6-.2.8-.3c.3-.1.5-.2.8-.3.1 0 .1-.1.2-.1.3-.1.6-.3.9-.4.6-.4 1.1-.7 2-1.1.1-.1.3-.1.5-.2s.4-.2.7-.3c1.6-.5 3.1-.5 3.7-.4.3 0 .8.6.8 1s.1 5.2.1 6.2c0 1.1.5 5.8.5 6.7 0 .8.2 6.1.9 9.4.3 1.3 1 2.1 1.6 2.6.1 0 .1.1.2.1.2.2.4.3.5.3.5.2 1.2.4 1.9.5h.2 1.3c.3 0 .6-.1.8-.1 1.5 0 2.4-.9 2.9-2.2s0-.1.1-.1c0 0 0 0 0-.1.5-1.4.9-3.9.7-6.8 0-.4-.1-.9-.1-1.4 0-.1 0-.1 0-.2-.1-.9-.1-1.7-.2-2.6 0-.4-.1-.9-.1-1.3 0-.1 0-.3 0-.4 0-.2 0-.4 0-.7 0-.9-.1-1.8-.1-2.4 0-.3 0-.5 0-.8v-.1c0-1-.1-2-.2-3 0-.2 0-.3 0-.5 0-.6 0-1.1 0-1.6.1-1.3-.4-2.3 1-2.7.2 0 .4-.1.6-.1 2.3-.3 4.2 0 7.3 1.5 1.4.8 3.5 1.5 4.8 1.2.1 0 .2 0 .2-.1h.1c.1 0 .2-.1.3-.1 1.5-.6 2.7-2.3 3-5.7.4-3.9.2-11.5-.1-14.2-.6-3.4.4-7.6-.9-8.9zm-34.8 9.9v-.1c0-.1 0-.1 0-.2s0-.2 0-.2v-.1c0-.2 0-.4 0-.5 0-.6.1-1 .2-1.2s.3-.3.5-.5c.1-.1.3-.1.4-.2s.3-.1.4-.2c.1 0 .1-.1.2-.1s.2-.1.2-.1c.1 0 .2-.1.3-.1s.2-.1.2-.1c.2-.1.4-.2.6-.2 1.3-.4 2.5-.5 3.2-.5 0 1 .1 2.4.1 4 0 0 0 0-.1 0s-.2 0-.4 0c-.1 0-.2 0-.4 0-.1 0-.1 0-.2 0h-.1c-.3 0-.5 0-.8.1-.3 0-.7 0-1 .1-1.1.1-2.2.1-2.8.2h-.1c-.1 0-.2 0-.3 0 .1-.1.1-.1-.1-.1zm6.8 9.3c-.4.1-1.1.3-2.5.6-2.8.4-3.8.3-3.9.2s0 0-.1 0-.1 0-.1 0v-.1s0 0 0-.1c-.1-.6-.3-2.3 1.4-2.8.1 0 .3-.1.4-.1 1.9-.2 3.8-.2 4.7 0 .1.9.1 1.7.1 2.3zm16.4-.6c-.1 0-.1 0 0 0-.4 0-.8-.1-1.1-.1h-.1c-1.2-.1-2.2-.2-2.9-.3-.1 0-.2 0-.2 0-.2 0-.4-.1-.5-.1 0 0 0 0-.1 0s0 0 0-.1c0-.4 0-.9-.1-1.5s0 0 0-.1c1-.1 4.7-.4 5.7-.1 1.2.4 1.9 1.2 1.9 1.8 0 .5.2.7-2.6.5zm2.4-9.4c-.2.1-.4.1-.7.2-.2 0-.4 0-.6.1-.4 0-.8.1-1.4.1h-.1c-.1 0-.1 0-.2 0-.4 0-.7 0-1.1.1-1.6 0-3.2-.1-3.6-1 0-1.1 0-2.1 0-2.8 0-.1 0-.1 0-.2.3-.1.6-.2 1.2-.2h.1c.5 0 1.1.1 1.9.2 3.4.6 4.6 1 4.7 2 .1.8.3 1.2-.2 1.5z" fill="#fff"/></svg>